<?xml version="1.0" standalone="no"?>
<!DOCTYPE svg PUBLIC "-//W3C//DTD SVG 1.1//EN" "http://www.w3.org/Graphics/SVG/1.1/DTD/svg11.dtd">
<svg xmlns="http://www.w3.org/2000/svg"><metadata>This SVG WebFont was generated by YouWorkForThem.
Copyright (c)2016, Radnika designed by Alfredo Marco Pradil (ammpradil@gmail.com). Radnika is a trademark of Alfredo Marco Pradil.</metadata><defs><font horiz-adv-x="0" id="ywftsvg"><font-face ascent="1638" bbox="-1432 -500 2322 2140" cap-height="1413" descent="-410" font-family="" font-stretch="normal" font-weight="700" panose-1="0 0 8 0 0 0 0 0 0 0" underline-position="0" underline-thickness="0" unicode-range="U+0020-FB02" units-per-em="2048" x-height="1049"/><missing-glyph d="M23 0v999h819v-999h-819zM125 102h614v795h-614v-795z" horiz-adv-x="862"/><glyph d="M1155 1049v-1049h-301v854h-332v-854h-301v854h-188v195h190v88q0 125 84 200.5t228 75.5h165v-217h-100q-78 0 -78 -80v-67h633zM854 1413h303v-231h-303v231z" glyph-name="uniFB01" horiz-adv-x="1288" unicode="fi"/><glyph d="M221 0v854h-188v195h190v88q0 125 84 200.5t228 75.5h198v-217h-133q-78 0 -78 -80v-67h211v-195h-211v-854h-301zM883 0v1413h299v-1413h-299z" glyph-name="uniFB02" horiz-adv-x="1316" unicode="fl"/><glyph d="M1190 1198q-53 0 -53 -68v-81h211v-195h-211v-854h-299v854h-316v-854h-299v854h-190v195h194v71q0 133 85 213t247 80h174v-215h-158q-53 0 -53 -68v-81h320v71q0 133 85 213t247 80h174v-215h-158z" glyph-name="f_f.liga" horiz-adv-x="1363" unicode="ff"/><glyph d="M834 1120q0 133 85 213t246 80h174v-215h-157q-53 0 -54 -68v-81h211v-195h-211v-854h-299v854h-307v-854h-299v854h-190v195h194v71q0 133 85 213t247 80h174v-215h-158q-53 0 -53 -68v-81h312v71zM1468 1413h304v-231h-304v231zM1468 0v1049h301v-1049h-301z" glyph-name="f_f_i.liga" horiz-adv-x="1902" unicode="ffi"/><glyph d="M829 1120q0 133 85 213t247 80h174v-215h-157q-53 0 -54 -68v-81h211v-195h-211v-854h-299v854h-303v-854h-299v854h-190v195h194v71q0 133 85 213t247 80h174v-215h-158q-53 0 -53 -68v-81h307v71zM1425 1413h299v-1413h-299v1413z" glyph-name="f_f_l.liga" horiz-adv-x="1859" unicode="ffl"/><glyph d="M23 0v999h819v-999h-819zM125 102h614v795h-614v-795z" glyph-name=".notdef" horiz-adv-x="862"/><glyph glyph-name="glyph1"/><glyph glyph-name="glyph2" horiz-adv-x="681"/><glyph glyph-name="space" horiz-adv-x="468" unicode=" "/><glyph d="M188 453l-28 960h280l-28 -960h-224zM147 0v303h306v-303h-306z" glyph-name="exclam" horiz-adv-x="598" unicode="!"/><glyph d="M109 836v577h243v-577h-243zM522 836v577h252v-577h-252z" glyph-name="quotedbl" horiz-adv-x="882" unicode="&quot;"/><glyph d="M197 0l82 406h-207v192h247l48 236h-215v188h254l81 391h201l-80 -377h240l80 377h198l-77 -387h206v-192h-245l-47 -236h215v-188h-254l-84 -410h-203l84 397h-240l-82 -397h-202zM520 598h240l47 236h-240z" glyph-name="numbersign" horiz-adv-x="1327" unicode="#"/><glyph d="M1120 436q0 -190 -118.5 -310t-317.5 -138v-148h-207v158q-283 57 -438 332l221 170q139 -252 356 -252q92 0 146.5 45t54.5 119q0 43 -18.5 74.5t-63.5 57t-86 41t-119 40.5q-74 23 -121 40t-109 52t-98 74.5t-62.5 102t-26.5 140.5q0 160 99 261.5t265 127.5v156h207 v-152q219 -25 389 -208l-176 -191q-129 160 -313 160q-76 0 -121 -30t-45 -85q0 -63 57 -99t191 -81q80 -27 128 -44.5t118.5 -56t109.5 -82.5t68.5 -115t29.5 -159z" glyph-name="dollar" horiz-adv-x="1173" unicode="$"/><glyph d="M389 748q-84 0 -147.5 35.5t-95 91t-46 108.5t-14.5 104q0 55 14.5 110.5t45 112t92 91.5t145.5 35q147 0 224 -107.5t77 -241t-75 -236.5t-220 -103zM289 0l758 1413h260l-758 -1413h-260zM385 961q33 0 57.5 36.5t24.5 92.5q0 61 -24.5 98t-59.5 37q-37 0 -60.5 -37 t-23.5 -101q0 -57 23.5 -91.5t62.5 -34.5zM1231 -14q-84 0 -147.5 34.5t-96.5 91t-47 112t-14 108.5q0 55 14 111.5t46 114.5t93.5 94t145.5 36q147 0 223 -109.5t76 -246.5q0 -133 -75 -239.5t-218 -106.5zM1229 195q31 0 54.5 39.5t23.5 99.5q0 61 -25 100t-57 39 q-37 0 -61.5 -39t-24.5 -102q0 -61 24.5 -99t65.5 -38z" glyph-name="percent" horiz-adv-x="1609" unicode="%"/><glyph d="M1135 340l338 -340h-386l-135 139q-150 -166 -399 -166q-207 0 -350.5 105.5t-143.5 298.5q0 150 92.5 251t237.5 136q-182 125 -182 311q0 176 125 266.5t295 90.5q172 0 293.5 -91.5t121.5 -263.5q0 -109 -61 -191.5t-217 -174.5l194 -195l267 373l202 -150z M630.5 1194q-59.5 0 -98 -39t-38.5 -96q0 -80 108 -185q94 51 129 93.5t35 93.5q0 55 -38 94t-97.5 39zM565 213q117 0 207 113l-254 264q-154 -59 -153 -193q0 -86 59 -135t141 -49z" glyph-name="ampersand" horiz-adv-x="1439" unicode="&amp;"/><glyph d="M109 864v578h243v-578h-243z" glyph-name="quotesingle" horiz-adv-x="460" unicode="'"/><glyph d="M352 -297q-115 139 -185.5 392t-70.5 507t67.5 495.5t186.5 393.5h285q-279 -379 -279 -889q0 -522 281 -899h-285z" glyph-name="parenleft" horiz-adv-x="657" unicode="("/><glyph d="M303 -297h-285q281 377 281 899q0 510 -279 889h285q119 -152 186.5 -393.5t67.5 -495.5t-70.5 -507t-185.5 -392z" glyph-name="parenright" horiz-adv-x="657" unicode=")"/><glyph d="M256 844l25 198l-158 -120l-78 129l184 77l-184 78l78 131l158 -123l-25 199h147l-26 -199l160 123l75 -131l-184 -78l184 -77l-75 -129l-160 120l26 -198h-147z" glyph-name="asterisk" horiz-adv-x="655" unicode="*"/><glyph d="M543 0v401h-398v234h398v401h231v-401h397v-234h-397v-401h-231z" glyph-name="plus" horiz-adv-x="1316" unicode="+"/><glyph d="M96 324h363v-324h-8l-220 -348h-153l141 348h-123v324z" glyph-name="comma" horiz-adv-x="557" unicode=","/><glyph d="M162 401v234h788v-234h-788z" glyph-name="hyphen" horiz-adv-x="1112" unicode="-"/><glyph d="M102 0v324h363v-324h-363z" glyph-name="period" horiz-adv-x="559" unicode="."/><glyph d="M82 -156l641 1567h268l-639 -1567h-270z" glyph-name="slash" horiz-adv-x="1073" unicode="/"/><glyph d="M610 -20q-184 0 -313 102t-186.5 262t-57.5 363q0 315 138.5 522t404.5 207q270 0 415.5 -205t145.5 -526q0 -317 -142.5 -521t-404.5 -204zM604 252q123 0 179.5 128t56.5 328.5t-58.5 325.5t-185.5 125q-84 0 -139.5 -63.5t-77 -160.5t-21.5 -228q0 -203 58.5 -329 t187.5 -126z" glyph-name="zero" horiz-adv-x="1210" unicode="0"/><glyph d="M377 0v1135l-322 -207v284l330 201h297v-1413h-305z" glyph-name="one" horiz-adv-x="899" unicode="1"/><glyph d="M426 260h709v-260h-1020v221q0 104 39 187.5t99 134.5t135 91t149.5 72.5t135 66.5t99.5 83t39 111q0 92 -50 147t-134 55q-98 0 -153.5 -71.5t-55.5 -200.5l-301 37q10 227 143 362.5t369 135.5q225 0 357 -123t132 -324q0 -143 -69.5 -245.5t-169 -157t-199.5 -97.5 t-174 -98t-80 -127z" glyph-name="two" horiz-adv-x="1230" unicode="2"/><glyph d="M573 -20q-219 0 -369.5 126.5t-150.5 364.5l295 14q0 -111 63.5 -175t166.5 -64q90 0 152.5 51t62.5 141t-60.5 136.5t-163.5 46.5h-65v243h65q74 0 114 39t40 107q0 72 -47 113.5t-123 41.5q-84 0 -134 -53t-52 -139l-291 16q0 207 134 326t337 119q195 0 334 -108.5 t139 -291.5q0 -106 -51 -177t-131 -97v-8q106 -20 177.5 -103.5t74.5 -224.5q0 -207 -153 -325.5t-364 -118.5z" glyph-name="three" horiz-adv-x="1142" unicode="3"/><glyph d="M932 555h168v-248h-168v-307h-301v307h-576v244l570 862h307v-858zM631 555v510l-332 -510h332z" glyph-name="four" horiz-adv-x="1185" unicode="4"/><glyph d="M694 971q193 0 319 -131t126 -338q0 -227 -155 -374.5t-384 -147.5q-188 0 -334.5 112.5t-199.5 292.5l288 86q31 -94 95.5 -150.5t148.5 -56.5q100 0 162.5 66.5t62.5 171.5q0 102 -65.5 166.5t-165.5 64.5q-133 0 -205 -117l-289 66l135 731h842v-260h-633l-53 -291 l8 -2q125 111 297 111z" glyph-name="five" horiz-adv-x="1206" unicode="5"/><glyph d="M592 -20q-240 0 -389.5 168.5t-149.5 494.5q0 102 10.5 196.5t47 207t95 194.5t166 137.5t249.5 55.5q326 0 466 -287l-225 -123q-84 164 -241 164q-145 0 -216 -116t-71 -281q109 133 307.5 133t326.5 -122t128 -333q0 -217 -144.5 -353t-359.5 -136zM594 242 q94 0 156.5 62.5t62.5 158.5t-61.5 158.5t-157.5 62.5q-94 0 -152.5 -61.5t-58.5 -157.5t59.5 -159.5t151.5 -63.5z" glyph-name="six" horiz-adv-x="1148" unicode="6"/><glyph d="M207 0q14 311 119.5 615.5t330.5 529.5v6h-600v262h893v-291q-129 -121 -214 -254t-125 -285.5t-55 -277.5t-21 -305h-328z" glyph-name="seven" horiz-adv-x="983" unicode="7"/><glyph d="M589.5 -20q-237.5 0 -387 113.5t-149.5 303.5q0 131 76 232.5t207 130.5v6q-92 29 -151.5 109.5t-59.5 181.5q0 164 130 270.5t333 106.5t334 -106.5t131 -270.5q0 -100 -59.5 -182t-151.5 -109v-6q131 -31 206.5 -131.5t75.5 -231.5q0 -190 -148.5 -303.5t-386 -113.5z M590 860q78 0 130 50.5t52 124t-52 122.5t-130 49t-130 -49t-52 -122.5t52 -124t130 -50.5zM587.5 229q100.5 0 166 59.5t65.5 151.5q0 90 -65.5 147.5t-166 57.5t-166 -57.5t-65.5 -147.5q0 -92 65.5 -151.5t166 -59.5z" glyph-name="eight" horiz-adv-x="1177" unicode="8"/><glyph d="M557 1434q240 0 389.5 -169t149.5 -495q0 -102 -10.5 -196.5t-47.5 -207t-95 -194.5t-165.5 -137t-249.5 -55q-326 0 -467 286l226 123q84 -164 241 -164q145 0 216 116t71 282q-109 -133 -307.5 -133.5t-326.5 121.5t-128 333q0 217 144.5 353.5t359.5 136.5zM555 1171 q-94 0 -156.5 -62t-62.5 -158.5t61.5 -159t157.5 -62.5q94 0 152.5 61.5t58.5 157.5t-59.5 159.5t-151.5 63.5z" glyph-name="nine" horiz-adv-x="1148" unicode="9"/><glyph d="M102 717v323h363v-323h-363zM100 0v324h363v-324h-363z" glyph-name="colon" horiz-adv-x="546" unicode=":"/><glyph d="M494 1040v-323h-363v323h363zM143 324h363v-324h-8l-219 -348h-154l141 348h-123v324z" glyph-name="semicolon" horiz-adv-x="571" unicode=";"/><glyph d="M1180 111l-1094 563l1094 563v-268l-592 -295l592 -293v-270z" glyph-name="less" horiz-adv-x="1329" unicode="&lt;"/><glyph d="M119 623v247h868v-247h-868zM119 166v248h868v-248h-868z" glyph-name="equal" horiz-adv-x="1107" unicode="="/><glyph d="M180 111v270l592 293l-592 295v268l1094 -563z" glyph-name="greater" horiz-adv-x="1374" unicode=">"/><glyph d="M356 449v100q0 98 31 162.5t74 96.5t87 58.5t74.5 68.5t30.5 105q0 70 -45 111t-121 41q-90 0 -139 -54.5t-49 -129.5h-248q2 176 109.5 301t310.5 125q180 0 303 -97.5t123 -292.5q0 -98 -30.5 -162.5t-74.5 -94t-88.5 -55t-75 -71t-30.5 -114.5v-98h-242zM330 0v303 h295v-303h-295z" glyph-name="question" horiz-adv-x="966" unicode="?"/><glyph d="M934 -375q-377 0 -626 245t-249 638q0 399 251 661.5t622 262.5q373 0 634 -263.5t261 -629.5q0 -113 -27.5 -220.5t-81 -201.5t-144.5 -151.5t-208 -57.5q-125 0 -199.5 70.5t-68.5 214.5q-106 -166 -297 -166q-158 0 -244 111.5t-86 289.5q0 238 138.5 420t330.5 182 q90 0 159.5 -44t88.5 -134l29 135h217l-148 -702q-35 -170 100 -174q96 0 164 109.5t68 301.5q0 295 -200.5 497t-483.5 202q-281 0 -474.5 -200t-193.5 -505q0 -287 177.5 -485.5t484.5 -198.5q78 0 164 21l61 -197q-108 -31 -219 -31zM848 248q121 0 199.5 114.5 t78.5 255.5q0 98 -44 151.5t-124 53.5q-121 0 -199.5 -111.5t-78.5 -252.5q0 -100 44 -155.5t124 -55.5z" glyph-name="at" horiz-adv-x="1886" unicode="@"/><glyph d="M1055 0l-99 315h-522l-100 -315h-336l491 1413h406l494 -1413h-334zM512 563h367l-179 572h-8z" glyph-name="A" horiz-adv-x="1386" unicode="A"/><glyph d="M150 0v1413h620q217 0 336 -101.5t119 -283.5q0 -104 -54.5 -179t-136.5 -106v-8q117 -20 188.5 -108t71.5 -224q0 -190 -122.5 -296.5t-344.5 -106.5h-677zM461 842h305q74 0 124 45t50 116.5t-45 111.5t-123 40h-311v-313zM461 266h336q96 0 145 46t49 126 q0 74 -53 118t-141 44h-336v-334z" glyph-name="B" horiz-adv-x="1353" unicode="B"/><glyph d="M698 -20q-164 0 -289.5 59t-200.5 162.5t-112 230.5t-37 274.5t37 274.5t112 231.5t201 164t291 59.5q449 0 594 -422l-288 -111q-27 129 -109 195.5t-199 66.5q-156 0 -247 -119.5t-91 -330.5q0 -215 92.5 -340t241.5 -125q113 0 195 69.5t121 198.5l286 -115 q-70 -209 -222.5 -316t-375.5 -107z" glyph-name="C" horiz-adv-x="1339" unicode="C"/><glyph d="M150 0v1413h434q367 0 558 -186.5t191 -521.5q0 -340 -192.5 -522.5t-558.5 -182.5h-432zM461 274h96q469 0 469 435q0 430 -446 430h-119v-865z" glyph-name="D" horiz-adv-x="1392" unicode="D"/><glyph d="M150 0v1413h958v-262h-647v-311h586v-262h-586v-314h647v-264h-958z" glyph-name="E" horiz-adv-x="1200" unicode="E"/><glyph d="M150 0v1413h987v-262h-676v-311h588v-262h-588v-578h-311z" glyph-name="F" horiz-adv-x="1175" unicode="F"/><glyph d="M774 791h586v-791h-244l-10 178q-63 -94 -178 -146t-248 -52q-289 0 -455 209.5t-166 523.5q0 311 181.5 517t509.5 206q225 0 379.5 -109.5t213.5 -286.5l-268 -84q-90 219 -334 220q-190 0 -282 -131.5t-92 -333.5q0 -205 92 -333t282 -128q158 0 247 86t89 207h-303 v248z" glyph-name="G" horiz-adv-x="1486" unicode="G"/><glyph d="M150 0v1413h311v-567h561v567h311v-1413h-311v569h-561v-569h-311z" glyph-name="H" horiz-adv-x="1482" unicode="H"/><glyph d="M150 0v1413h311v-1413h-311z" glyph-name="I" horiz-adv-x="610" unicode="I"/><glyph d="M25 285q96 -20 157 -21q98 0 143.5 53.5t45.5 180.5v915h309v-989q0 -205 -117 -324.5t-336 -119.5q-133 0 -202 20v285z" glyph-name="J" horiz-adv-x="788" unicode="J"/><glyph d="M1057 0l-391 606l-205 -221v-385h-311v1413h311v-647l557 647h393l-541 -586l576 -827h-389z" glyph-name="K" horiz-adv-x="1449" unicode="K"/><glyph d="M150 0v1413h311v-1151h604v-262h-915z" glyph-name="L" horiz-adv-x="1077" unicode="L"/><glyph d="M150 0v1413h450l352 -1048l353 1048h454v-1413h-309v1047h-12l-346 -1047h-279l-344 1047h-12v-1047h-307z" glyph-name="M" horiz-adv-x="1910" unicode="M"/><glyph d="M150 0v1413h327l604 -960h11v960h309v-1413h-332l-598 956h-10v-956h-311z" glyph-name="N" horiz-adv-x="1550" unicode="N"/><glyph d="M733 -20q-309 0 -491.5 196.5t-182.5 530t182.5 530.5t491.5 197q313 0 498.5 -197t185.5 -530.5t-185.5 -530t-498.5 -196.5zM733 248q164 0 260.5 124t96.5 335t-96.5 334.5t-260.5 123.5q-158 0 -251 -123.5t-93 -334.5t93 -335t251 -124z" glyph-name="O" horiz-adv-x="1476" unicode="O"/><glyph d="M150 0v1413h653q227 0 356 -128t129 -343q0 -213 -128 -335t-357 -122h-344v-485h-309zM459 752h295q227 0 227 198q0 197 -227 197h-295v-395z" glyph-name="P" horiz-adv-x="1327" unicode="P"/><glyph d="M1421 39l-168 -170l-184 186q-145 -76 -336 -75q-309 0 -491.5 196.5t-182.5 530t182.5 530.5t491.5 197q313 0 498.5 -197t185.5 -530q0 -311 -162 -504zM733 248q63 0 125 22l-174 176l162 164l182 -182q61 111 62 279q0 211 -96.5 334.5t-260.5 123.5 q-158 0 -251 -123.5t-93 -334.5t93 -335t251 -124z" glyph-name="Q" horiz-adv-x="1480" unicode="Q"/><glyph d="M150 -2v1415h679q207 0 339 -112.5t132 -305.5q0 -272 -260 -381l334 -616h-340l-276 571h-301v-571h-307zM459 811h352q188 6 188 172q0 170 -198 170h-342v-342z" glyph-name="R" horiz-adv-x="1382" unicode="R"/><glyph d="M616 -16q-182 0 -331.5 88t-245.5 258l221 170q139 -252 356 -252q92 0 146.5 45t54.5 119q0 43 -18.5 74.5t-63.5 57t-86 41t-119 40.5q-74 23 -121 40t-109 52t-98 74.5t-62.5 102t-26.5 140.5q0 188 134 294t349 106q279 0 477 -215l-176 -191q-129 160 -313 160 q-76 0 -121 -30t-45 -85q0 -63 57 -99t191 -81q80 -27 128 -44.5t118.5 -56t109.5 -82.5t68.5 -115t29.5 -159q0 -205 -139.5 -328.5t-364.5 -123.5z" glyph-name="S" horiz-adv-x="1173" unicode="S"/><glyph d="M436 0v1151h-422v262h1155v-262h-424v-1151h-309z" glyph-name="T" horiz-adv-x="1183" unicode="T"/><glyph d="M707 -20q-281 0 -423.5 145t-142.5 410v878h312v-889q0 -125 66.5 -193.5t187.5 -68.5q125 0 193.5 68.5t68.5 193.5v889h311v-868q0 -270 -144 -417.5t-429 -147.5z" glyph-name="U" horiz-adv-x="1421" unicode="U"/><glyph d="M498 0l-494 1413h332l354 -1134h8l361 1134h334l-490 -1413h-405z" glyph-name="V" horiz-adv-x="1396" unicode="V"/><glyph d="M303 0l-293 1413h322l209 -1149h12l252 1149h354l250 -1149h12l209 1149h322l-293 -1413h-445l-235 1073l-231 -1073h-445z" glyph-name="W" horiz-adv-x="1961" unicode="W"/><glyph d="M-4 0l475 707l-473 706h383l315 -495l312 495h381l-476 -706l478 -707h-381l-316 487l-315 -487h-383z" glyph-name="X" horiz-adv-x="1386" unicode="X"/><glyph d="M549 0v551l-553 862h350l363 -579l348 579h350l-553 -862v-551h-305z" glyph-name="Y" horiz-adv-x="1404" unicode="Y"/><glyph d="M1198 1413v-219l-727 -932h727v-262h-1163v203l749 948h-704v262h1118z" glyph-name="Z" horiz-adv-x="1232" unicode="Z"/><glyph d="M129 -311v1810h444v-252h-192v-1302h192v-256h-444z" glyph-name="bracketleft" horiz-adv-x="600" unicode="["/><glyph d="M723 -156l-641 1567h270l639 -1567h-268z" glyph-name="backslash" horiz-adv-x="1073" unicode="\"/><glyph d="M471 -311h-444v256h192v1302h-192v252h444v-1810z" glyph-name="bracketright" horiz-adv-x="600" unicode="]"/><glyph d="M6 510l465 903l465 -903h-293l-172 401l-172 -401h-293z" glyph-name="asciicircum" horiz-adv-x="942" unicode="^"/><glyph d="M-6 -223v223h889v-223h-889z" glyph-name="underscore" horiz-adv-x="874" unicode="_"/><glyph d="M356 1120l-315 244h303l227 -244h-215z" glyph-name="grave" horiz-adv-x="614" unicode="`"/><glyph d="M539 1069q209 0 338 -88t129 -266v-715h-265v117q-70 -68 -162 -104t-176 -36q-156 0 -248 78t-92 213q0 190 197 289q102 49 481 145q-2 78 -49 112t-151 34q-168 0 -273 -131l-184 141q158 211 455 211zM492 201q147 4 249 121v184q-213 -61 -272 -90q-92 -43 -92 -117 q0 -49 32 -74.5t83 -23.5z" glyph-name="a" horiz-adv-x="1107" unicode="a"/><glyph d="M760 1069q209 0 328.5 -149.5t119.5 -395.5q0 -248 -120.5 -397.5t-331.5 -149.5q-111 0 -198 46.5t-130 119.5h-2v-143h-295v1413h301v-502q47 70 134.5 114t193.5 44zM662 227q244 0 243 299q0 291 -243 291q-106 0 -171 -77.5t-65 -213.5q0 -141 63.5 -220t172.5 -79z " glyph-name="b" horiz-adv-x="1275" unicode="b"/><glyph d="M588 -23q-248 0 -384 156t-136 389q0 236 135 391.5t383 155.5q352 0 477 -317l-248 -97q-45 178 -221 179q-113 0 -173.5 -88.5t-60.5 -225.5q0 -135 60.5 -220t173.5 -85q174 0 223 176l238 -86q-109 -328 -467 -328z" glyph-name="c" horiz-adv-x="1097" unicode="c"/><glyph d="M844 1413h301v-1413h-295v143h-2q-43 -74 -130 -120t-198 -46q-211 0 -331.5 149.5t-120.5 397.5q0 246 119.5 395.5t328.5 149.5q106 0 193.5 -44t134.5 -114v502zM614 227q109 0 172.5 79t63.5 220q0 135 -64.5 213t-171.5 78q-244 0 -243 -291q-1 -299 243 -299z" glyph-name="d" horiz-adv-x="1275" unicode="d"/><glyph d="M1061 575q0 -80 -10 -120h-680q14 -236 237 -236q82 0 140.5 23.5t111.5 91.5l191 -139q-98 -115 -204 -165t-243 -50q-236 0 -386 142t-150 394q0 248 140 400.5t367 152.5q213 0 349.5 -136.5t136.5 -357.5zM573.5 842q-92.5 0 -143.5 -51.5t-59 -143.5h395 q-4 86 -52 140.5t-140.5 54.5z" glyph-name="e" horiz-adv-x="1132" unicode="e"/><glyph d="M223 0v854h-190v195h194v71q0 133 85 213t247 80h174v-215h-158q-53 0 -53 -68v-81h211v-195h-211v-854h-299z" glyph-name="f" horiz-adv-x="759" unicode="f"/><glyph d="M842 1049h299v-983q0 -125 -45 -216.5t-121 -140.5t-160 -71.5t-180 -22.5q-358 0 -533 192l138 181q129 -152 350 -152q111 0 181.5 54.5t70.5 160.5v125q-37 -61 -120 -102t-194 -41q-205 0 -332.5 139t-127.5 381t128 379t328 137q104 0 189.5 -41t128.5 -106v127z M614 266q115 0 177.5 75t62.5 198q0 125 -63.5 206.5t-180.5 81.5q-115 0 -177 -77.5t-62 -202.5t63 -203t180 -78z" glyph-name="g" horiz-adv-x="1271" unicode="g"/><glyph d="M131 0v1413h301v-495h6q109 152 324 151q170 0 265 -104.5t95 -270.5v-694h-299v641q0 88 -45 138t-129 50q-98 0 -157.5 -59t-59.5 -149v-621h-301z" glyph-name="h" horiz-adv-x="1241" unicode="h"/><glyph d="M131 1182v231h303v-231h-303zM131 0v1049h301v-1049h-301z" glyph-name="i" horiz-adv-x="565" unicode="i"/><glyph d="M129 1182v231h309v-231h-309zM-53 -365v236q94 0 141 47t47 121v1010h299v-1000q0 -211 -118.5 -312.5t-368.5 -101.5z" glyph-name="j" horiz-adv-x="569" unicode="j"/><glyph d="M872 0l-294 453l-146 -144v-309h-301v1413h301v-760l391 396h363l-416 -408l449 -641h-347z" glyph-name="k" horiz-adv-x="1189" unicode="k"/><glyph d="M135 0v1413h299v-1413h-299z" glyph-name="l" horiz-adv-x="569" unicode="l"/><glyph d="M131 0v1049h295v-144h6q96 164 291 164q193 0 276 -178h11q113 178 309 178q166 0 256 -102.5t90 -282.5v-684h-301v643q0 168 -152 168q-82 0 -123.5 -55.5t-41.5 -149.5v-606h-302v643q0 168 -147 168q-84 0 -125 -55.5t-41 -149.5v-606h-301z" glyph-name="m" horiz-adv-x="1785" unicode="m"/><glyph d="M131 0v1049h297v-131h10q111 152 322 151q164 0 263 -103.5t99 -271.5v-694h-299v641q0 184 -178 184q-94 0 -153.5 -56t-59.5 -148v-621h-301z" glyph-name="n" horiz-adv-x="1241" unicode="n"/><glyph d="M602.5 -23q-237.5 0 -386 142.5t-148.5 400.5q0 262 148.5 405.5t386 143.5t385 -143.5t147.5 -405.5q0 -258 -147.5 -400.5t-385 -142.5zM602 221q111 0 176.5 73t65.5 226q0 158 -65.5 232.5t-176.5 74.5q-109 0 -173 -74.5t-64 -232.5q0 -154 64 -226.5t173 -72.5z " glyph-name="o" horiz-adv-x="1202" unicode="o"/><glyph d="M762 1069q201 0 323.5 -150.5t122.5 -394.5q0 -246 -123.5 -396.5t-326.5 -150.5q-119 0 -210 53.5t-122 135.5v-531h-295v1414h299v-150q39 76 129 123t203 47zM662 225q115 0 179 76t64 227q0 141 -65.5 217t-177.5 76q-109 0 -174.5 -78.5t-65.5 -214.5 q0 -143 65.5 -223t174.5 -80z" glyph-name="p" horiz-adv-x="1275" unicode="p"/><glyph d="M846 1049h299v-1414h-295v531q-31 -82 -122 -135.5t-210 -53.5q-203 0 -326.5 151t-123.5 396q0 244 122.5 394.5t323.5 150.5q113 0 203 -47t129 -123v150zM614 225q109 0 174.5 80t65.5 223q0 135 -65.5 214t-174.5 79q-113 0 -178 -75.5t-65 -217.5q0 -152 64 -227.5 t179 -75.5z" glyph-name="q" horiz-adv-x="1275" unicode="q"/><glyph d="M131 0v1049h291v-162h6q37 84 100.5 131t137.5 47q80 0 118 -16v-248q-66 6 -108 -2q-113 -16 -178.5 -102.5t-65.5 -235.5v-461h-301z" glyph-name="r" horiz-adv-x="804" unicode="r"/><glyph d="M526 -23q-127 0 -255 47.5t-222 131.5l135 186q129 -129 293 -139q84 -6 139.5 16.5t59.5 75.5q2 29 -10.5 48t-48 34.5t-65.5 24t-95 22.5q-66 16 -106 28.5t-94 38t-84 56.5t-52.5 82t-22.5 114q0 164 117 245t307 81q246 0 414 -151l-121 -183q-106 96 -256 117 q-170 18 -186 -68q-2 -12 0 -23t11 -20.5t18.5 -17.5t28 -15.5t32.5 -13.5t38.5 -12t42 -11t46 -12.5t47.5 -11.5q74 -20 123 -40.5t100 -57.5t77 -93.5t26 -133.5q0 -160 -114 -252.5t-323 -92.5z" glyph-name="s" horiz-adv-x="1021" unicode="s"/><glyph d="M414 0q-119 0 -183.5 69.5t-64.5 196.5v588h-146v195h146v364h299v-364h217v-195h-217v-514q0 -57 21.5 -82t70.5 -25h125v-233h-268z" glyph-name="t" horiz-adv-x="733" unicode="t"/><glyph d="M1124 1049v-1049h-295v131h-16q-100 -156 -317 -156q-172 0 -267.5 106.5t-95.5 274.5v693h301v-617q0 -88 49 -138t135 -50q98 0 152.5 58t54.5 149v598h299z" glyph-name="u" horiz-adv-x="1255" unicode="u"/><glyph d="M793 1049h321l-379 -1049h-352l-379 1049h324l231 -793z" glyph-name="v" horiz-adv-x="1118" unicode="v"/><glyph d="M1354 1049h319l-276 -1049h-391l-172 668l-166 -672h-394l-272 1053h320l165 -801l213 801h271l213 -805z" glyph-name="w" horiz-adv-x="1675" unicode="w"/><glyph d="M4 0l363 528l-363 521h365l209 -330l208 330h365l-367 -521l367 -528h-365l-208 338l-209 -338h-365z" glyph-name="x" horiz-adv-x="1157" unicode="x"/><glyph d="M84 -365v236q229 0 291 156l-383 1022h319l211 -703h15l213 703h321l-405 -1069q-80 -209 -200 -277t-382 -68z" glyph-name="y" horiz-adv-x="1052" unicode="y"/><glyph d="M963 1049v-224l-510 -587h505v-238h-895v211l535 602h-530v236h895z" glyph-name="z" horiz-adv-x="1026" unicode="z"/><glyph d="M498 -311q-129 0 -219.5 90t-90.5 219v379q0 55 -27.5 75.5t-92.5 20.5v250q66 0 93 20.5t27 75.5v381q0 129 90.5 219t219.5 90h137v-274h-84q-41 0 -65.5 -23.5t-24.5 -62.5v-352q0 -66 -18.5 -113t-84.5 -86q66 -37 84.5 -84t18.5 -115v-350q0 -39 25.5 -63.5 t64.5 -24.5h84v-272h-137z" glyph-name="braceleft" horiz-adv-x="681" unicode="{"/><glyph d="M158 -156v1692h219v-1692h-219z" glyph-name="bar" horiz-adv-x="532" unicode="|"/><glyph d="M184 -311h-137v272h84q39 0 64.5 24.5t25.5 63.5v350q0 45 4 73t29 63.5t70 62.5q-66 39 -84.5 86t-18.5 113v352q0 39 -24.5 62.5t-65.5 23.5h-84v274h137q129 0 219.5 -90t90.5 -219v-381q0 -55 27.5 -75.5t92.5 -20.5v-250q-66 0 -93 -20.5t-27 -75.5v-379 q0 -129 -90.5 -219t-219.5 -90z" glyph-name="braceright" horiz-adv-x="684" unicode="}"/><glyph d="M737 356q-72 0 -135 39t-117.5 77t-103.5 38q-94 0 -94 -145h-209q0 178 69.5 274t198.5 96q78 0 141.5 -38t115.5 -75.5t102 -37.5q98 0 98 149h211q0 -182 -72 -279.5t-205 -97.5z" glyph-name="asciitilde" horiz-adv-x="1093" unicode="~"/><glyph d="M147 745v304h306v-304h-306zM160 -387l28 983h224l28 -983h-280z" glyph-name="exclamdown" horiz-adv-x="598" unicode="¡"/><glyph d="M594 215q174 0 223 176l238 -86q-96 -289 -379 -321v-189h-219v197q-186 41 -287.5 186.5t-101.5 343.5q0 201 101 347.5t288 187.5v143h219v-137q279 -35 387 -311l-248 -97q-45 178 -221 179q-113 0 -173.5 -88.5t-60.5 -225.5q0 -135 60.5 -220t173.5 -85z" glyph-name="cent" horiz-adv-x="1097" unicode="¢"/><glyph d="M485 528v-274h748v-254h-1022v528h-164v236h164v133q0 236 147.5 386.5t376.5 150.5q164 0 305.5 -100.5t192.5 -256.5l-260 -92q-23 76 -90.5 125t-147.5 49q-115 0 -182.5 -70.5t-67.5 -191.5v-133h381v-236h-381z" glyph-name="sterling" horiz-adv-x="1294" unicode="£"/><glyph d="M236 137l-168 176l108 107q-74 117 -74 260t74 260l-108 107l168 176l110 -115q119 76 260.5 76t259.5 -76l111 115l168 -176l-109 -107q74 -117 74 -260t-74 -260l109 -107l-168 -176l-111 115q-119 -76 -260 -76t-260 76zM606.5 416q104.5 0 188.5 78q76 82 75.5 186 t-75.5 186q-84 78 -188.5 78t-188.5 -78q-76 -82 -76 -186.5t76 -185.5q84 -78 188.5 -78z" glyph-name="currency" horiz-adv-x="1212" unicode="¤"/><glyph d="M575 -33v170h-299v195h299v170h-299v200h193l-473 711h303l397 -651l402 651h303l-473 -715h192v-196h-299v-170h299v-195h-299v-170h-246z" glyph-name="yen" horiz-adv-x="1396" unicode="¥"/><glyph d="M158 768v645h254v-645h-254zM158 -156v600h254v-600h-254z" glyph-name="brokenbar" horiz-adv-x="569" unicode="¦"/><glyph d="M596 -18q-164 0 -288 66.5t-163 219.5l269 80q39 -137 202 -137q160 0 160 98q0 51 -61.5 78t-149.5 39t-176 33.5t-149.5 85t-61.5 170.5q0 129 96 211q-94 72 -94 200q0 152 110.5 230t289.5 78q332 0 417 -269l-247 -61q-29 113 -172 113q-145 0 -146 -99 q0 -41 44 -65.5t110.5 -32.5t144.5 -26.5t144.5 -45t110.5 -91t44 -161.5q0 -119 -92 -198q92 -70 92 -189q0 -168 -120.5 -247.5t-313.5 -79.5zM713 618q31 18 41 47t-6 66q-4 16 -15.5 29.5t-30 24t-35 17.5t-43 14t-43 10t-48 9.5t-44.5 8.5q-63 -41 -43 -111 q4 -16 13.5 -29.5t27 -23.5t34 -17.5t44 -13.5t45 -10t52.5 -10.5t51 -10.5z" glyph-name="section" horiz-adv-x="1138" unicode="§"/><glyph d="M55 1130v234h226v-234h-226zM442 1130v234h226v-234h-226z" glyph-name="dieresis" horiz-adv-x="722" unicode="¨"/><glyph d="M831 -63q-315 0 -543.5 228t-228.5 543.5t228.5 544t543.5 228.5q317 0 545 -227.5t228 -545t-228 -544.5t-545 -227zM831.5 61q266.5 0 458 190.5t191.5 457t-191.5 457t-458 190.5t-457 -190.5t-190.5 -457t190.5 -457t457 -190.5zM842 240q-215 0 -332 135t-117 336 q0 205 117 339t330 134q303 0 411 -275l-213 -84q-39 156 -190 156q-98 0 -150.5 -76t-52.5 -196q0 -115 52.5 -189t150.5 -74q150 0 192 152l205 -74q-92 -284 -403 -284z" glyph-name="copyright" horiz-adv-x="1662" unicode="©"/><glyph d="M367 1436q143 0 230 -60.5t87 -183.5v-487h-180v79q-96 -96 -230 -96q-106 0 -169.5 53.5t-63.5 145.5q0 129 135 198q74 35 328 99q-2 53 -34 76.5t-103 23.5q-115 0 -187 -90l-125 96q109 146 312 146zM334 842q104 4 170 82v125q-133 -35 -187 -60q-61 -29 -61 -80 q0 -71 78 -67z" glyph-name="ordfeminine" horiz-adv-x="747" unicode="ª"/><glyph d="M549 139l-463 371l463 375v-238l-176 -137l176 -135v-236zM1049 139l-465 371l465 375v-238l-177 -137l177 -135v-236z" glyph-name="guillemotleft" horiz-adv-x="1132" unicode="«"/><glyph d="M817 154v381h-698v262h987v-643h-289z" glyph-name="logicalnot" horiz-adv-x="1226" unicode="¬"/><glyph d="M647 352q-219 0 -373.5 158t-154.5 383t154.5 383t373.5 158t375 -159t156 -382t-156 -382t-375 -159zM647 469q172 0 296 125t124 299t-124 300t-296 126t-296 -126t-124 -300t123 -299t297 -125zM463 625v540h215q92 0 142 -45t50 -125q0 -106 -98 -155l141 -215h-157 l-111 194h-43v-194h-139zM596 940h82q61 0 61 55.5t-61 55.5h-82v-111z" glyph-name="registered" horiz-adv-x="1294" unicode="®"/><glyph d="M63 1178v153h576v-153h-576z" glyph-name="macron" horiz-adv-x="702" unicode="¯"/><glyph d="M401.5 764q-149.5 0 -246 94t-96.5 242q0 145 96.5 239.5t246 94.5t244.5 -94.5t95 -239.5q0 -147 -95 -241.5t-244.5 -94.5zM401 961q61 0 101.5 38.5t40.5 100.5q0 59 -40 97t-102 38q-63 0 -103 -38t-40 -97q0 -61 40 -100t103 -39z" glyph-name="degree" horiz-adv-x="800" unicode="°"/><glyph d="M575 319v406h-456v225h456v406h224v-406h456v-225h-456v-406h-224zM121 -2v223h1134v-223h-1134z" glyph-name="plusminus" horiz-adv-x="1376" unicode="±"/><glyph d="M47 1120l229 244h302l-324 -244h-207z" glyph-name="acute" horiz-adv-x="614" unicode="´"/><glyph d="M125 -266v1265h266v-561q0 -94 47 -152.5t131 -58.5q94 0 154.5 60.5t60.5 158.5v553h267v-999h-267v115q-111 -137 -258 -138q-63 0 -141 19l-16 -262h-244z" glyph-name="uni00B5" horiz-adv-x="1181" unicode="µ"/><glyph d="M528 -287v910q-184 0 -318 107.5t-134 287.5t134 287.5t318 107.5h177v-1700h-177zM885 -287v1700h178v-1700h-178z" glyph-name="paragraph" horiz-adv-x="1198" unicode="¶"/><glyph d="M260 627q-72 0 -119 46t-47 111q0 72 47 118t119 46q63 0 109.5 -46t46.5 -118q0 -66 -45 -111.5t-111 -45.5z" glyph-name="periodcentered" horiz-adv-x="512" unicode="·"/><glyph d="M285 -500q-84 0 -147.5 40t-88.5 104l139 65q16 -63 84 -63q33 0 54.5 18.5t21.5 46.5q0 59 -69 78l-160 45l94 166h201l-80 -115l28 -8q141 -41 142 -180q0 -98 -63.5 -147.5t-155.5 -49.5z" glyph-name="cedilla" horiz-adv-x="546" unicode="¸"/><glyph d="M407.5 696q-159.5 0 -260 96.5t-100.5 268.5q0 176 100.5 273.5t260 97.5t260 -96.5t100.5 -274.5q0 -174 -100.5 -269.5t-260 -95.5zM408 860q76 0 119.5 49t43.5 152q0 209 -163 209q-160 0 -160 -209q0 -201 160 -201z" glyph-name="ordmasculine" horiz-adv-x="817" unicode="º"/><glyph d="M98 139v242l176 129l-176 131v244l465 -375zM598 139v242l176 129l-176 131v244l463 -375z" glyph-name="guillemotright" horiz-adv-x="1148" unicode="»"/><glyph d="M678 1049v-304h-295v304h295zM651 600v-100q0 -98 -30.5 -163t-74.5 -96.5t-87 -58t-74 -68.5t-31 -106q0 -70 45 -110.5t121 -40.5q90 0 139.5 54t49.5 130h247q-2 -176 -109.5 -301t-309.5 -125q-180 0 -303 97.5t-123 291.5q0 98 30.5 162.5t74.5 94.5t88 55.5 t75 70.5t31 115v98h241z" glyph-name="questiondown" horiz-adv-x="989" unicode="¿"/><glyph d="M801 1532h-215l-316 244h303zM1055 0l-99 315h-522l-100 -315h-336l491 1413h406l494 -1413h-334zM512 563h367l-179 572h-8z" glyph-name="Agrave" horiz-adv-x="1386" unicode="À"/><glyph d="M1120 1776l-323 -244h-207l229 244h301zM1055 0l-99 315h-522l-100 -315h-336l491 1413h406l494 -1413h-334zM512 563h367l-179 572h-8z" glyph-name="Aacute" horiz-adv-x="1386" unicode="Á"/><glyph d="M694 1645l-102 -132h-223l243 263h162l248 -263h-227zM1055 0l-99 315h-522l-100 -315h-336l491 1413h406l494 -1413h-334zM512 563h367l-179 572h-8z" glyph-name="Acircumflex" horiz-adv-x="1386" unicode="Â"/><glyph d="M856 1503q-68 0 -121 31t-94 61.5t-78 30.5q-72 0 -74 -119h-174q0 272 217 273q72 0 124.5 -30t92 -59.5t78.5 -29.5q78 0 78 115h170q0 -273 -219 -273zM1055 0l-99 315h-522l-100 -315h-336l491 1413h406l494 -1413h-334zM512 563h367l-179 572h-8z" glyph-name="Atilde" horiz-adv-x="1386" unicode="Ã"/><glyph d="M612 1776v-234h-225v234h225zM999 1776v-234h-225v234h225zM1055 0l-99 315h-522l-100 -315h-336l491 1413h406l494 -1413h-334zM512 563h367l-179 572h-8z" glyph-name="Adieresis" horiz-adv-x="1386" unicode="Ä"/><glyph d="M922 1335l467 -1335h-334l-99 315h-522l-100 -315h-336l463 1333q-59 80 -60 180q0 119 85 203t206 84t205 -84t84 -203q0 -98 -59 -178zM692 1620q-51 0 -79.5 -28.5t-28.5 -80.5q0 -72 59 -98h94q66 31 66 98q0 45 -33 77t-78 32zM512 563h367l-179 572h-8z" glyph-name="Aring" horiz-adv-x="1386" unicode="Å"/><glyph d="M1866 1137h-680v-291h590v-277h-590v-295h680v-274h-975v295h-451l-114 -295h-328l577 1413h1291v-276zM537 543h354v641h-107z" glyph-name="AE" horiz-adv-x="1957" unicode="Æ"/><glyph d="M1296 403q-121 -367 -491 -417l-70 -101l29 -8q141 -41 141 -180q0 -98 -63.5 -147.5t-155.5 -49.5q-84 0 -147.5 40t-87.5 104l139 65q16 -63 84 -63q33 0 54.5 18.5t21.5 46.5q0 59 -70 78l-160 45l86 152q-272 31 -409.5 232.5t-137.5 488.5q0 147 37 274t112 231.5 t201 164t291 59.5q449 0 594 -422l-288 -111q-27 129 -109 195.5t-199 66.5q-156 0 -247 -119.5t-91 -330.5q0 -215 92.5 -340t241.5 -125q113 0 195 69.5t121 198.5z" glyph-name="Ccedilla" horiz-adv-x="1339" unicode="Ç"/><glyph d="M522 1532l-315 244h303l227 -244h-215zM150 0v1413h958v-262h-647v-311h586v-262h-586v-314h647v-264h-958z" glyph-name="Egrave" horiz-adv-x="1200" unicode="È"/><glyph d="M526 1532l230 244h301l-324 -244h-207zM150 0v1413h958v-262h-647v-311h586v-262h-586v-314h647v-264h-958z" glyph-name="Eacute" horiz-adv-x="1200" unicode="É"/><glyph d="M305 1513l244 263h162l247 -263h-227l-100 132l-103 -132h-223zM150 0v1413h958v-262h-647v-311h586v-262h-586v-314h647v-264h-958z" glyph-name="Ecircumflex" horiz-adv-x="1200" unicode="Ê"/><glyph d="M324 1542v234h225v-234h-225zM711 1542v234h225v-234h-225zM150 0v1413h958v-262h-647v-311h586v-262h-586v-314h647v-264h-958z" glyph-name="Edieresis" horiz-adv-x="1200" unicode="Ë"/><glyph d="M193 1532l-316 244h303l228 -244h-215zM150 0v1413h311v-1413h-311z" glyph-name="Igrave" horiz-adv-x="610" unicode="Ì"/><glyph d="M197 1532l229 244h301l-324 -244h-206zM150 0v1413h311v-1413h-311z" glyph-name="Iacute" horiz-adv-x="610" unicode="Í"/><glyph d="M-25 1513l244 263h162l248 -263h-228l-100 132l-102 -132h-224zM150 0v1413h311v-1413h-311z" glyph-name="Icircumflex" horiz-adv-x="610" unicode="Î"/><glyph d="M-6 1542v234h225v-234h-225zM381 1542v234h225v-234h-225zM150 0v1413h311v-1413h-311z" glyph-name="Idieresis" horiz-adv-x="610" unicode="Ï"/><glyph d="M573 1413q367 0 558.5 -186.5t191.5 -521.5q0 -340 -192.5 -522.5t-559.5 -182.5h-432v614h-110v197h110v602h434zM547 274q469 0 469 435q0 430 -447 430h-118v-328h317v-197h-317v-340h96z" glyph-name="Eth" horiz-adv-x="1384" unicode="Ð"/><glyph d="M934 1503q-68 0 -121 31t-94 61.5t-78 30.5q-72 0 -74 -119h-174q0 272 217 273q72 0 124 -30t92 -59.5t79 -29.5q78 0 78 115h170q0 -273 -219 -273zM150 0v1413h327l604 -960h11v960h309v-1413h-332l-598 956h-10v-956h-311z" glyph-name="Ntilde" horiz-adv-x="1550" unicode="Ñ"/><glyph d="M625 1532l-316 244h303l228 -244h-215zM733 -20q-309 0 -491.5 196.5t-182.5 530t182.5 530.5t491.5 197q313 0 498.5 -197t185.5 -530.5t-185.5 -530t-498.5 -196.5zM733 248q164 0 260.5 124t96.5 335t-96.5 334.5t-260.5 123.5q-158 0 -251 -123.5t-93 -334.5t93 -335 t251 -124z" glyph-name="Ograve" horiz-adv-x="1476" unicode="Ò"/><glyph d="M629 1532l229 244h301l-323 -244h-207zM733 -20q-309 0 -491.5 196.5t-182.5 530t182.5 530.5t491.5 197q313 0 498.5 -197t185.5 -530.5t-185.5 -530t-498.5 -196.5zM733 248q164 0 260.5 124t96.5 335t-96.5 334.5t-260.5 123.5q-158 0 -251 -123.5t-93 -334.5t93 -335 t251 -124z" glyph-name="Oacute" horiz-adv-x="1476" unicode="Ó"/><glyph d="M408 1513l243 263h162l248 -263h-227l-101 132l-102 -132h-223zM733 -20q-309 0 -491.5 196.5t-182.5 530t182.5 530.5t491.5 197q313 0 498.5 -197t185.5 -530.5t-185.5 -530t-498.5 -196.5zM733 248q164 0 260.5 124t96.5 335t-96.5 334.5t-260.5 123.5 q-158 0 -251 -123.5t-93 -334.5t93 -335t251 -124z" glyph-name="Ocircumflex" horiz-adv-x="1476" unicode="Ô"/><glyph d="M895 1503q-68 0 -121 31t-94 61.5t-78 30.5q-72 0 -74 -119h-174q0 272 217 273q72 0 124.5 -30t92 -59.5t78.5 -29.5q78 0 78 115h170q0 -273 -219 -273zM733 -20q-309 0 -491.5 196.5t-182.5 530t182.5 530.5t491.5 197q313 0 498.5 -197t185.5 -530.5t-185.5 -530 t-498.5 -196.5zM733 248q164 0 260.5 124t96.5 335t-96.5 334.5t-260.5 123.5q-158 0 -251 -123.5t-93 -334.5t93 -335t251 -124z" glyph-name="Otilde" horiz-adv-x="1476" unicode="Õ"/><glyph d="M426 1542v234h225v-234h-225zM813 1542v234h225v-234h-225zM733 -20q-309 0 -491.5 196.5t-182.5 530t182.5 530.5t491.5 197q313 0 498.5 -197t185.5 -530.5t-185.5 -530t-498.5 -196.5zM733 248q164 0 260.5 124t96.5 335t-96.5 334.5t-260.5 123.5q-158 0 -251 -123.5 t-93 -334.5t93 -335t251 -124z" glyph-name="Odieresis" horiz-adv-x="1476" unicode="Ö"/><glyph d="M893 63l-283 285l-280 -280l-166 163l280 283l-282 283l162 164l284 -285l281 282l166 -165l-281 -281l283 -285z" glyph-name="multiply" horiz-adv-x="1218" unicode="×"/><glyph d="M1305 1143q113 -180 112 -436q0 -334 -185 -530.5t-499 -196.5q-268 0 -442 149l-101 -100l-137 131l115 114q-109 182 -109 433q0 334 182.5 530.5t491.5 196.5q266 0 447 -148l96 96l135 -131zM389 707q0 -98 23 -189l553 553q-90 94 -232 94q-158 0 -251 -123.5 t-93 -334.5zM733 248q164 0 260.5 124t96.5 335q0 100 -27 196l-557 -559q90 -96 227 -96z" glyph-name="Oslash" horiz-adv-x="1476" unicode="Ø"/><glyph d="M604 1532l-315 244h303l227 -244h-215zM707 -20q-281 0 -423.5 145t-142.5 410v878h312v-889q0 -125 66.5 -193.5t187.5 -68.5q125 0 193.5 68.5t68.5 193.5v889h311v-868q0 -270 -144 -417.5t-429 -147.5z" glyph-name="Ugrave" horiz-adv-x="1421" unicode="Ù"/><glyph d="M608 1532l230 244h301l-324 -244h-207zM707 -20q-281 0 -423.5 145t-142.5 410v878h312v-889q0 -125 66.5 -193.5t187.5 -68.5q125 0 193.5 68.5t68.5 193.5v889h311v-868q0 -270 -144 -417.5t-429 -147.5z" glyph-name="Uacute" horiz-adv-x="1421" unicode="Ú"/><glyph d="M387 1513l244 263h162l247 -263h-227l-100 132l-103 -132h-223zM707 -20q-281 0 -423.5 145t-142.5 410v878h312v-889q0 -125 66.5 -193.5t187.5 -68.5q125 0 193.5 68.5t68.5 193.5v889h311v-868q0 -270 -144 -417.5t-429 -147.5z" glyph-name="Ucircumflex" horiz-adv-x="1421" unicode="Û"/><glyph d="M406 1542v234h225v-234h-225zM793 1542v234h225v-234h-225zM707 -20q-281 0 -423.5 145t-142.5 410v878h312v-889q0 -125 66.5 -193.5t187.5 -68.5q125 0 193.5 68.5t68.5 193.5v889h311v-868q0 -270 -144 -417.5t-429 -147.5z" glyph-name="Udieresis" horiz-adv-x="1421" unicode="Ü"/><glyph d="M598 1532l229 244h301l-323 -244h-207zM549 0v551l-553 862h350l363 -579l348 579h350l-553 -862v-551h-305z" glyph-name="Yacute" horiz-adv-x="1404" unicode="Ý"/><glyph d="M150 0v1413h270v-143h299q217 0 352 -113t135 -340q0 -229 -134 -334.5t-353 -105.5h-299v-377h-270zM420 635h285q231 0 231 184q0 88 -59.5 137.5t-171.5 49.5h-285v-371z" glyph-name="Thorn" horiz-adv-x="1245" unicode="Þ"/><glyph d="M727 -18q-72 0 -166 22v275q94 -35 160 -35q121 0 121 104q0 45 -31 82t-75 66.5t-89 62.5t-75.5 83t-30.5 116q0 61 34.5 109t75.5 73t76 61.5t35 81.5q0 55 -45 91t-119 36q-96 0 -143 -58t-47 -155v-997h-283v997q0 203 134 320t327 117q111 0 210 -35t172.5 -116 t73.5 -196q0 -74 -34.5 -131t-75.5 -84.5t-76 -58.5t-35 -59q0 -31 31 -63t76 -63.5t89 -70.5t74.5 -102.5t30.5 -143.5q0 -156 -109.5 -242.5t-285.5 -86.5z" glyph-name="germandbls" horiz-adv-x="1179" unicode="ß"/><glyph d="M639 1169h-215l-315 244h303zM539 1069q209 0 338 -88t129 -266v-715h-265v117q-70 -68 -162 -104t-176 -36q-156 0 -248 78t-92 213q0 190 197 289q102 49 481 145q-2 78 -49 112t-151 34q-168 0 -273 -131l-184 141q158 211 455 211zM492 201q147 4 249 121v184 q-213 -61 -272 -90q-92 -43 -92 -117q0 -49 32 -74.5t83 -23.5z" glyph-name="agrave" horiz-adv-x="1107" unicode="à"/><glyph d="M958 1413l-323 -244h-207l229 244h301zM539 1069q209 0 338 -88t129 -266v-715h-265v117q-70 -68 -162 -104t-176 -36q-156 0 -248 78t-92 213q0 190 197 289q102 49 481 145q-2 78 -49 112t-151 34q-168 0 -273 -131l-184 141q158 211 455 211zM492 201q147 4 249 121 v184q-213 -61 -272 -90q-92 -43 -92 -117q0 -49 32 -74.5t83 -23.5z" glyph-name="aacute" horiz-adv-x="1107" unicode="á"/><glyph d="M532 1282l-102 -131h-223l244 262h161l248 -262h-227zM539 1069q209 0 338 -88t129 -266v-715h-265v117q-70 -68 -162 -104t-176 -36q-156 0 -248 78t-92 213q0 190 197 289q102 49 481 145q-2 78 -49 112t-151 34q-168 0 -273 -131l-184 141q158 211 455 211zM492 201 q147 4 249 121v184q-213 -61 -272 -90q-92 -43 -92 -117q0 -49 32 -74.5t83 -23.5z" glyph-name="acircumflex" horiz-adv-x="1107" unicode="â"/><glyph d="M694 1141q-68 0 -121 30.5t-94 61.5t-78 31q-72 0 -73 -119h-174q0 272 217 272q72 0 124 -29.5t92 -59.5t79 -30q78 0 77 115h170q0 -272 -219 -272zM539 1069q209 0 338 -88t129 -266v-715h-265v117q-70 -68 -162 -104t-176 -36q-156 0 -248 78t-92 213q0 190 197 289 q102 49 481 145q-2 78 -49 112t-151 34q-168 0 -273 -131l-184 141q158 211 455 211zM492 201q147 4 249 121v184q-213 -61 -272 -90q-92 -43 -92 -117q0 -49 32 -74.5t83 -23.5z" glyph-name="atilde" horiz-adv-x="1107" unicode="ã"/><glyph d="M451 1413v-233h-226v233h226zM838 1413v-233h-226v233h226zM539 1069q209 0 338 -88t129 -266v-715h-265v117q-70 -68 -162 -104t-176 -36q-156 0 -248 78t-92 213q0 190 197 289q102 49 481 145q-2 78 -49 112t-151 34q-168 0 -273 -131l-184 141q158 211 455 211z M492 201q147 4 249 121v184q-213 -61 -272 -90q-92 -43 -92 -117q0 -49 32 -74.5t83 -23.5z" glyph-name="adieresis" horiz-adv-x="1107" unicode="ä"/><glyph d="M532 1118q-92 0 -155.5 64.5t-63.5 158.5q0 90 64.5 154t155 64t155 -63.5t64.5 -154.5q0 -92 -65 -157.5t-155 -65.5zM532.5 1257q34.5 0 59 25t24.5 57q0 35 -24.5 58.5t-59.5 23.5q-82 0 -81 -82q0 -37 23.5 -59.5t58 -22.5zM539 1069q209 0 338 -88t129 -266v-715 h-265v117q-70 -68 -162 -104t-176 -36q-156 0 -248 78t-92 213q0 190 197 289q102 49 481 145q-2 78 -49 112t-151 34q-168 0 -273 -131l-184 141q158 211 455 211zM492 201q147 4 249 121v184q-213 -61 -272 -90q-92 -43 -92 -117q0 -49 32 -74.5t83 -23.5z" glyph-name="aring" horiz-adv-x="1107" unicode="å"/><glyph d="M1700 455h-680v-13q20 -223 237 -223q82 0 140.5 23.5t111.5 91.5l191 -139q-98 -115 -203.5 -165t-243.5 -50q-289 0 -434 198q-154 -201 -407 -201q-158 0 -253.5 79t-95.5 216q0 186 203 285q150 74 469 125q4 18 17 55q-31 98 -183 99q-186 0 -311 -144l-188 148 q78 102 203.5 164.5t283.5 62.5q221 0 350 -104q129 106 318 106q213 0 349 -136t136 -358q0 -79 -10 -120zM1223 842q-90 0 -141.5 -50.5t-61.5 -140.5v-4h395q-4 86 -52 140.5t-140 54.5zM510 203q74 0 138.5 32.5t92.5 102.5q-20 70 -24 158q-186 -39 -271 -88 q-68 -39 -67 -105q0 -100 131 -100z" glyph-name="ae" horiz-adv-x="1796" unicode="æ"/><glyph d="M594 215q174 0 223 176l238 -86q-86 -264 -332 -315l-74 -105l29 -8q141 -41 141 -180q0 -98 -63.5 -147.5t-155.5 -49.5q-84 0 -147.5 40t-87.5 104l139 65q16 -63 84 -63q33 0 54.5 18.5t21.5 46.5q0 59 -70 78l-160 45l84 148q-215 23 -332.5 174t-117.5 366 q0 236 135 391.5t383 155.5q352 0 477 -317l-248 -97q-45 178 -221 179q-113 0 -173.5 -88.5t-60.5 -225.5q0 -135 60.5 -220t173.5 -85z" glyph-name="ccedilla" horiz-adv-x="1097" unicode="ç"/><glyph d="M676 1169h-215l-316 244h304zM1061 575q0 -80 -10 -120h-680q14 -236 237 -236q82 0 140.5 23.5t111.5 91.5l191 -139q-98 -115 -204 -165t-243 -50q-236 0 -386 142t-150 394q0 248 140 400.5t367 152.5q213 0 349.5 -136.5t136.5 -357.5zM573.5 842 q-92.5 0 -143.5 -51.5t-59 -143.5h395q-4 86 -52 140.5t-140.5 54.5z" glyph-name="egrave" horiz-adv-x="1132" unicode="è"/><glyph d="M995 1413l-323 -244h-207l229 244h301zM1061 575q0 -80 -10 -120h-680q14 -236 237 -236q82 0 140.5 23.5t111.5 91.5l191 -139q-98 -115 -204 -165t-243 -50q-236 0 -386 142t-150 394q0 248 140 400.5t367 152.5q213 0 349.5 -136.5t136.5 -357.5zM573.5 842 q-92.5 0 -143.5 -51.5t-59 -143.5h395q-4 86 -52 140.5t-140.5 54.5z" glyph-name="eacute" horiz-adv-x="1132" unicode="é"/><glyph d="M569 1282l-102 -131h-223l243 262h162l248 -262h-227zM1061 575q0 -80 -10 -120h-680q14 -236 237 -236q82 0 140.5 23.5t111.5 91.5l191 -139q-98 -115 -204 -165t-243 -50q-236 0 -386 142t-150 394q0 248 140 400.5t367 152.5q213 0 349.5 -136.5t136.5 -357.5z M573.5 842q-92.5 0 -143.5 -51.5t-59 -143.5h395q-4 86 -52 140.5t-140.5 54.5z" glyph-name="ecircumflex" horiz-adv-x="1132" unicode="ê"/><glyph d="M487 1413v-233h-225v233h225zM874 1413v-233h-225v233h225zM1061 575q0 -80 -10 -120h-680q14 -236 237 -236q82 0 140.5 23.5t111.5 91.5l191 -139q-98 -115 -204 -165t-243 -50q-236 0 -386 142t-150 394q0 248 140 400.5t367 152.5q213 0 349.5 -136.5t136.5 -357.5z M573.5 842q-92.5 0 -143.5 -51.5t-59 -143.5h395q-4 86 -52 140.5t-140.5 54.5z" glyph-name="edieresis" horiz-adv-x="1132" unicode="ë"/><glyph d="M176 1169l-315 244h303l227 -244h-215zM135 0v1049h299v-1049h-299z" glyph-name="igrave" horiz-adv-x="569" unicode="ì"/><glyph d="M180 1169l230 244h301l-324 -244h-207zM135 0v1049h299v-1049h-299z" glyph-name="iacute" horiz-adv-x="569" unicode="í"/><glyph d="M-41 1151l244 262h162l247 -262h-227l-100 131l-103 -131h-223zM135 0v1049h299v-1049h-299z" glyph-name="icircumflex" horiz-adv-x="569" unicode="î"/><glyph d="M-23 1180v233h226v-233h-226zM365 1180v233h225v-233h-225zM135 0v1049h299v-1049h-299z" glyph-name="idieresis" horiz-adv-x="569" unicode="ï"/><glyph d="M645 1395q459 -283 459 -879q0 -219 -141.5 -375.5t-380.5 -156.5q-242 0 -381.5 155.5t-139.5 376.5q0 219 134.5 376t359.5 157q82 0 151.5 -30t104.5 -77q-84 174 -279 279l-77 -117l-107 67l70 105q-66 25 -139 49l110 191q68 -23 148 -64l88 131l104 -63zM581.5 229 q100.5 0 156 80t55.5 207t-55.5 207t-156 80t-156.5 -80t-56 -207t56 -207t156.5 -80z" glyph-name="eth" horiz-adv-x="1165" unicode="ð"/><glyph d="M782 1145q-68 0 -121 30.5t-94 61.5t-78 31q-72 0 -73 -119h-174q0 272 217 272q72 0 124 -29.5t92 -59t79 -29.5q78 0 77 114h170q0 -272 -219 -272zM131 0v1049h297v-131h10q111 152 322 151q164 0 263 -103.5t99 -271.5v-694h-299v641q0 184 -178 184 q-94 0 -153.5 -56t-59.5 -148v-621h-301z" glyph-name="ntilde" horiz-adv-x="1241" unicode="ñ"/><glyph d="M494 1169l-316 244h303l228 -244h-215zM602.5 -23q-237.5 0 -386 142.5t-148.5 400.5q0 262 148.5 405.5t386 143.5t385 -143.5t147.5 -405.5q0 -258 -147.5 -400.5t-385 -142.5zM602 221q111 0 176.5 73t65.5 226q0 158 -65.5 232.5t-176.5 74.5q-109 0 -173 -74.5 t-64 -232.5q0 -154 64 -226.5t173 -72.5z" glyph-name="ograve" horiz-adv-x="1202" unicode="ò"/><glyph d="M498 1169l229 244h301l-323 -244h-207zM602.5 -23q-237.5 0 -386 142.5t-148.5 400.5q0 262 148.5 405.5t386 143.5t385 -143.5t147.5 -405.5q0 -258 -147.5 -400.5t-385 -142.5zM602 221q111 0 176.5 73t65.5 226q0 158 -65.5 232.5t-176.5 74.5q-109 0 -173 -74.5 t-64 -232.5q0 -154 64 -226.5t173 -72.5z" glyph-name="oacute" horiz-adv-x="1202" unicode="ó"/><glyph d="M276 1151l244 262h162l248 -262h-228l-100 131l-102 -131h-224zM602.5 -23q-237.5 0 -386 142.5t-148.5 400.5q0 262 148.5 405.5t386 143.5t385 -143.5t147.5 -405.5q0 -258 -147.5 -400.5t-385 -142.5zM602 221q111 0 176.5 73t65.5 226q0 158 -65.5 232.5t-176.5 74.5 q-109 0 -173 -74.5t-64 -232.5q0 -154 64 -226.5t173 -72.5z" glyph-name="ocircumflex" horiz-adv-x="1202" unicode="ô"/><glyph d="M764 1141q-68 0 -121 30.5t-94 61.5t-78 31q-72 0 -74 -119h-174q0 272 217 272q72 0 124 -29.5t92 -59.5t79 -30q78 0 78 115h170q0 -272 -219 -272zM602.5 -23q-237.5 0 -386 142.5t-148.5 400.5q0 262 148.5 405.5t386 143.5t385 -143.5t147.5 -405.5 q0 -258 -147.5 -400.5t-385 -142.5zM602 221q111 0 176.5 73t65.5 226q0 158 -65.5 232.5t-176.5 74.5q-109 0 -173 -74.5t-64 -232.5q0 -154 64 -226.5t173 -72.5z" glyph-name="otilde" horiz-adv-x="1202" unicode="õ"/><glyph d="M295 1180v233h225v-233h-225zM682 1180v233h225v-233h-225zM602.5 -23q-237.5 0 -386 142.5t-148.5 400.5q0 262 148.5 405.5t386 143.5t385 -143.5t147.5 -405.5q0 -258 -147.5 -400.5t-385 -142.5zM602 221q111 0 176.5 73t65.5 226q0 158 -65.5 232.5t-176.5 74.5 q-109 0 -173 -74.5t-64 -232.5q0 -154 64 -226.5t173 -72.5z" glyph-name="odieresis" horiz-adv-x="1202" unicode="ö"/><glyph d="M471 793v229h260v-229h-260zM162 401v234h880v-234h-880zM471 8v230h260v-230h-260z" glyph-name="divide" horiz-adv-x="1204" unicode="÷"/><glyph d="M1036 866q98 -137 99 -346q0 -258 -147.5 -400.5t-385.5 -142.5q-203 0 -344 107l-39 -39l-98 92l43 43q-96 137 -96 340q0 262 148.5 405.5t385.5 143.5q203 0 344 -106l39 38l94 -92zM365 520q0 -76 14 -125l379 379q-59 53 -156 53q-109 0 -173 -74.5t-64 -232.5z M602 221q111 0 176.5 73t65.5 226q0 76 -17 135l-381 -381q60 -53 156 -53z" glyph-name="oslash" horiz-adv-x="1202" unicode="ø"/><glyph d="M520 1169l-315 244h303l227 -244h-215zM1124 1049v-1049h-295v131h-16q-100 -156 -317 -156q-172 0 -267.5 106.5t-95.5 274.5v693h301v-617q0 -88 49 -138t135 -50q98 0 152.5 58t54.5 149v598h299z" glyph-name="ugrave" horiz-adv-x="1255" unicode="ù"/><glyph d="M524 1169l230 244h301l-324 -244h-207zM1124 1049v-1049h-295v131h-16q-100 -156 -317 -156q-172 0 -267.5 106.5t-95.5 274.5v693h301v-617q0 -88 49 -138t135 -50q98 0 152.5 58t54.5 149v598h299z" glyph-name="uacute" horiz-adv-x="1255" unicode="ú"/><glyph d="M303 1151l244 262h162l247 -262h-227l-100 131l-103 -131h-223zM1124 1049v-1049h-295v131h-16q-100 -156 -317 -156q-172 0 -267.5 106.5t-95.5 274.5v693h301v-617q0 -88 49 -138t135 -50q98 0 152.5 58t54.5 149v598h299z" glyph-name="ucircumflex" horiz-adv-x="1255" unicode="û"/><glyph d="M322 1180v233h225v-233h-225zM709 1180v233h225v-233h-225zM1124 1049v-1049h-295v131h-16q-100 -156 -317 -156q-172 0 -267.5 106.5t-95.5 274.5v693h301v-617q0 -88 49 -138t135 -50q98 0 152.5 58t54.5 149v598h299z" glyph-name="udieresis" horiz-adv-x="1255" unicode="ü"/><glyph d="M428 1169l229 244h301l-323 -244h-207zM84 -365v236q229 0 291 156l-383 1022h319l211 -703h15l213 703h321l-405 -1069q-80 -209 -200 -277t-382 -68z" glyph-name="yacute" horiz-adv-x="1052" unicode="ý"/><glyph d="M131 -365v1778h305v-532h6q117 139 303 139q197 0 313 -145.5t116 -375t-116 -374.5t-313 -145q-201 0 -303 135h-10v-480h-301zM657 227q113 0 175.5 75t62.5 208q0 139 -62.5 216t-175.5 77q-109 0 -170 -81t-61 -212q0 -127 61 -205t170 -78z" glyph-name="thorn" horiz-adv-x="1241" unicode="þ"/><glyph d="M225 1180v233h226v-233h-226zM612 1180v233h226v-233h-226zM84 -365v236q229 0 291 156l-383 1022h319l211 -703h15l213 703h321l-405 -1069q-80 -209 -200 -277t-382 -68z" glyph-name="ydieresis" horiz-adv-x="1052" unicode="ÿ"/><glyph d="M985 1743v-154h-575v154h575zM1055 0l-99 315h-522l-100 -315h-336l491 1413h406l494 -1413h-334zM512 563h367l-179 572h-8z" glyph-name="Amacron" horiz-adv-x="1386" unicode="Ā"/><glyph d="M823 1380v-153h-575v153h575zM539 1069q209 0 338 -88t129 -266v-715h-265v117q-70 -68 -162 -104t-176 -36q-156 0 -248 78t-92 213q0 190 197 289q102 49 481 145q-2 78 -49 112t-151 34q-168 0 -273 -131l-184 141q158 211 455 211zM492 201q147 4 249 121v184 q-213 -61 -272 -90q-92 -43 -92 -117q0 -49 32 -74.5t83 -23.5z" glyph-name="amacron" horiz-adv-x="1107" unicode="ā"/><glyph d="M694 1503q-141 0 -228 73t-87 198h184q0 -51 37 -83t94 -32q59 0 96 31.5t37 83.5h191q0 -123 -90.5 -197t-233.5 -74zM1055 0l-99 315h-522l-100 -315h-336l491 1413h406l494 -1413h-334zM512 563h367l-179 572h-8z" glyph-name="Abreve" horiz-adv-x="1386" unicode="Ă"/><glyph d="M532 1141q-141 0 -228 72.5t-87 197.5h184q0 -51 37 -83t94 -32q59 0 96.5 32t37.5 83h190q0 -123 -90.5 -196.5t-233.5 -73.5zM539 1069q209 0 338 -88t129 -266v-715h-265v117q-70 -68 -162 -104t-176 -36q-156 0 -248 78t-92 213q0 190 197 289q102 49 481 145 q-2 78 -49 112t-151 34q-168 0 -273 -131l-184 141q158 211 455 211zM492 201q147 4 249 121v184q-213 -61 -272 -90q-92 -43 -92 -117q0 -49 32 -74.5t83 -23.5z" glyph-name="abreve" horiz-adv-x="1107" unicode="ă"/><glyph d="M1350 -246l143 -102q-82 -125 -229 -125q-96 0 -166 53t-70 164q0 147 160 256h-133l-99 315h-522l-100 -315h-336l491 1413h406l494 -1413q-190 -129 -191 -231q0 -72 64 -72q55 0 88 57zM512 563h367l-179 572h-8z" glyph-name="Aogonek" horiz-adv-x="1386" unicode="Ą"/><glyph d="M967 -246l143 -102q-82 -125 -229 -125q-96 0 -166 53t-70 164q0 147 160 256h-64v117q-70 -68 -162 -104t-176 -36q-156 0 -248 78t-92 213q0 190 197 289q102 49 481 145q-2 78 -49 112t-151 34q-168 0 -273 -131l-184 141q158 211 455 211q209 0 338 -88t129 -266 v-715q-190 -129 -191 -231q0 -72 64 -72q55 0 88 57zM741 322v184q-213 -61 -272 -90q-92 -43 -92 -117q0 -49 31.5 -74.5t83.5 -23.5q147 4 249 121z" glyph-name="aogonek" horiz-adv-x="1107" unicode="ą"/><glyph d="M580 1532l229 244h301l-324 -244h-206zM698 -20q-164 0 -289.5 59t-200.5 162.5t-112 230.5t-37 274.5t37 274.5t112 231.5t201 164t291 59.5q449 0 594 -422l-288 -111q-27 129 -109 195.5t-199 66.5q-156 0 -247 -119.5t-91 -330.5q0 -215 92.5 -340t241.5 -125 q113 0 195 69.5t121 198.5l286 -115q-70 -209 -222.5 -316t-375.5 -107z" glyph-name="Cacute" horiz-adv-x="1339" unicode="Ć"/><glyph d="M459 1169l229 244h301l-323 -244h-207zM588 -23q-248 0 -384 156t-136 389q0 236 135 391.5t383 155.5q352 0 477 -317l-248 -97q-45 178 -221 179q-113 0 -173.5 -88.5t-60.5 -225.5q0 -135 60.5 -220t173.5 -85q174 0 223 176l238 -86q-109 -328 -467 -328z" glyph-name="cacute" horiz-adv-x="1097" unicode="ć"/><glyph d="M571 1544v232h222v-232h-222zM698 -20q-164 0 -289.5 59t-200.5 162.5t-112 230.5t-37 274.5t37 274.5t112 231.5t201 164t291 59.5q449 0 594 -422l-288 -111q-27 129 -109 195.5t-199 66.5q-156 0 -247 -119.5t-91 -330.5q0 -215 92.5 -340t241.5 -125q113 0 195 69.5 t121 198.5l286 -115q-70 -209 -222.5 -316t-375.5 -107z" glyph-name="Cdotaccent" horiz-adv-x="1339" unicode="Ċ"/><glyph d="M451 1182v231h221v-231h-221zM588 -23q-248 0 -384 156t-136 389q0 236 135 391.5t383 155.5q352 0 477 -317l-248 -97q-45 178 -221 179q-113 0 -173.5 -88.5t-60.5 -225.5q0 -135 60.5 -220t173.5 -85q174 0 223 176l238 -86q-109 -328 -467 -328z" glyph-name="cdotaccent" horiz-adv-x="1097" unicode="ċ"/><glyph d="M602 1518l-244 258h224l100 -125l102 125h226l-246 -258h-162zM698 -20q-164 0 -289.5 59t-200.5 162.5t-112 230.5t-37 274.5t37 274.5t112 231.5t201 164t291 59.5q449 0 594 -422l-288 -111q-27 129 -109 195.5t-199 66.5q-156 0 -247 -119.5t-91 -330.5 q0 -215 92.5 -340t241.5 -125q113 0 195 69.5t121 198.5l286 -115q-70 -209 -222.5 -316t-375.5 -107z" glyph-name="Ccaron" horiz-adv-x="1339" unicode="Č"/><glyph d="M481 1155l-243 258h223l100 -125l103 125h225l-246 -258h-162zM588 -23q-248 0 -384 156t-136 389q0 236 135 391.5t383 155.5q352 0 477 -317l-248 -97q-45 178 -221 179q-113 0 -173.5 -88.5t-60.5 -225.5q0 -135 60.5 -220t173.5 -85q174 0 223 176l238 -86 q-109 -328 -467 -328z" glyph-name="ccaron" horiz-adv-x="1097" unicode="č"/><glyph d="M524 1518l-243 258h223l100 -125l103 125h225l-246 -258h-162zM150 0v1413h434q367 0 558 -186.5t191 -521.5q0 -340 -192.5 -522.5t-558.5 -182.5h-432zM461 274h96q469 0 469 435q0 430 -446 430h-119v-865z" glyph-name="Dcaron" horiz-adv-x="1392" unicode="Ď"/><glyph d="M1253 1415h312v-280h-6l-189 -299h-133l121 299h-105v280zM844 911v502h301v-1413h-295v143h-2q-43 -74 -130 -120t-198 -46q-211 0 -331.5 149.5t-120.5 397.5q0 246 119.5 395.5t328.5 149.5q106 0 193.5 -44t134.5 -114zM614 227q109 0 172.5 79t63.5 220 q0 135 -64.5 213t-171.5 78q-244 0 -243 -291q-1 -299 243 -299z" glyph-name="dcaron" horiz-adv-x="1431" unicode="ď"/><glyph d="M573 1413q367 0 558.5 -186.5t191.5 -521.5q0 -340 -192.5 -522.5t-559.5 -182.5h-432v614h-110v197h110v602h434zM547 274q469 0 469 435q0 430 -447 430h-118v-328h317v-197h-317v-340h96z" glyph-name="Dcroat" horiz-adv-x="1384" unicode="Đ"/><glyph d="M1274 1343v-137h-129v-1206h-295v143h-2q-43 -74 -130 -120t-198 -46q-211 0 -331.5 149.5t-120.5 397.5q0 246 119.5 395.5t328.5 149.5q106 0 193.5 -44t134.5 -114v295h-232v137h232v70h301v-70h129zM614 227q109 0 172.5 79t63.5 220q0 135 -64.5 213t-171.5 78 q-244 0 -243 -291q-1 -299 243 -299z" glyph-name="dcroat" horiz-adv-x="1275" unicode="đ"/><glyph d="M346 1589v154h576v-154h-576zM150 0v1413h958v-262h-647v-311h586v-262h-586v-314h647v-264h-958z" glyph-name="Emacron" horiz-adv-x="1200" unicode="Ē"/><glyph d="M860 1380v-153h-575v153h575zM1061 575q0 -80 -10 -120h-680q14 -236 237 -236q82 0 140.5 23.5t111.5 91.5l191 -139q-98 -115 -204 -165t-243 -50q-236 0 -386 142t-150 394q0 248 140 400.5t367 152.5q213 0 349.5 -136.5t136.5 -357.5zM573.5 842 q-92.5 0 -143.5 -51.5t-59 -143.5h395q-4 86 -52 140.5t-140.5 54.5z" glyph-name="emacron" horiz-adv-x="1132" unicode="ē"/><glyph d="M518 1544v232h221v-232h-221zM150 0v1413h958v-262h-647v-311h586v-262h-586v-314h647v-264h-958z" glyph-name="Edotaccent" horiz-adv-x="1200" unicode="Ė"/><glyph d="M678 1413v-231h-221v231h221zM1061 575q0 -80 -10 -120h-680q14 -236 237 -236q82 0 140.5 23.5t111.5 91.5l191 -139q-98 -115 -204 -165t-243 -50q-236 0 -386 142t-150 394q0 248 140 400.5t367 152.5q213 0 349.5 -136.5t136.5 -357.5zM573.5 842 q-92.5 0 -143.5 -51.5t-59 -143.5h395q-4 86 -52 140.5t-140.5 54.5z" glyph-name="edotaccent" horiz-adv-x="1132" unicode="ė"/><glyph d="M1069 -246l143 -102q-82 -125 -229 -125q-96 0 -165.5 53t-69.5 164q0 147 159 256h-757v1413h958v-262h-647v-311h586v-262h-586v-314h647v-264q-190 -129 -190 -231q0 -72 63 -72q55 0 88 57z" glyph-name="Eogonek" horiz-adv-x="1200" unicode="Ę"/><glyph d="M825 -203q55 0 88 58l144 -103q-82 -125 -230 -125q-96 0 -165.5 53.5t-69.5 163.5q0 72 39 136h-27q-236 0 -386 142t-150 394q0 248 140 400.5t367 152.5q213 0 349.5 -136t136.5 -358q0 -80 -10 -120h-680q14 -236 237 -236q82 0 140.5 23.5t111.5 91.5l191 -139 q-76 -88 -164 -144q-125 -100 -125 -182q0 -72 63 -72zM573.5 842q-92.5 0 -143.5 -51.5t-59 -143.5h395q-4 86 -52 140.5t-140.5 54.5z" glyph-name="eogonek" horiz-adv-x="1132" unicode="ę"/><glyph d="M549 1518l-244 258h223l101 -125l102 125h225l-245 -258h-162zM150 0v1413h958v-262h-647v-311h586v-262h-586v-314h647v-264h-958z" glyph-name="Ecaron" horiz-adv-x="1200" unicode="Ě"/><glyph d="M649 1155h-162l-243 258h223l100 -125l103 125h225zM1061 575q0 -80 -10 -120h-680q14 -236 237 -236q82 0 140.5 23.5t111.5 91.5l191 -139q-98 -115 -204 -165t-243 -50q-236 0 -386 142t-150 394q0 248 140 400.5t367 152.5q213 0 349.5 -136.5t136.5 -357.5z M573.5 842q-92.5 0 -143.5 -51.5t-59 -143.5h395q-4 86 -52 140.5t-140.5 54.5z" glyph-name="ecaron" horiz-adv-x="1132" unicode="ě"/><glyph d="M729 1503q-141 0 -228 73t-87 198h184q0 -51 37 -83t94 -32q59 0 96 31.5t37 83.5h191q0 -123 -90.5 -197t-233.5 -74zM774 791h586v-791h-244l-10 178q-63 -94 -178 -146t-248 -52q-289 0 -455 209.5t-166 523.5q0 311 181.5 517t509.5 206q225 0 379.5 -109.5 t213.5 -286.5l-268 -84q-90 219 -334 220q-190 0 -282 -131.5t-92 -333.5q0 -205 92 -333t282 -128q158 0 247 86t89 207h-303v248z" glyph-name="Gbreve" horiz-adv-x="1486" unicode="Ğ"/><glyph d="M606 1141q-141 0 -228 72.5t-87 197.5h184q0 -51 37 -83t94 -32q59 0 96 32t37 83h191q0 -123 -90.5 -196.5t-233.5 -73.5zM842 1049h299v-983q0 -125 -45 -216.5t-121 -140.5t-160 -71.5t-180 -22.5q-358 0 -533 192l138 181q129 -152 350 -152q111 0 181.5 54.5 t70.5 160.5v125q-37 -61 -120 -102t-194 -41q-205 0 -332.5 139t-127.5 381t128 379t328 137q104 0 189.5 -41t128.5 -106v127zM614 266q115 0 177.5 75t62.5 198q0 125 -63.5 206.5t-180.5 81.5q-115 0 -177 -77.5t-62 -202.5t63 -203t180 -78z" glyph-name="gbreve" horiz-adv-x="1271" unicode="ğ"/><glyph d="M838 1776v-232h-222v232h222zM774 791h586v-791h-244l-10 178q-63 -94 -178 -146t-248 -52q-289 0 -455 209.5t-166 523.5q0 311 181.5 517t509.5 206q225 0 379.5 -109.5t213.5 -286.5l-268 -84q-90 219 -334 220q-190 0 -282 -131.5t-92 -333.5q0 -205 92 -333 t282 -128q158 0 247 86t89 207h-303v248z" glyph-name="Gdotaccent" horiz-adv-x="1486" unicode="Ġ"/><glyph d="M715 1413v-231h-221v231h221zM842 1049h299v-983q0 -125 -45 -216.5t-121 -140.5t-160 -71.5t-180 -22.5q-358 0 -533 192l138 181q129 -152 350 -152q111 0 181.5 54.5t70.5 160.5v125q-37 -61 -120 -102t-194 -41q-205 0 -332.5 139t-127.5 381t128 379t328 137 q104 0 189.5 -41t128.5 -106v127zM614 266q115 0 177.5 75t62.5 198q0 125 -63.5 206.5t-180.5 81.5q-115 0 -177 -77.5t-62 -202.5t63 -203t180 -78z" glyph-name="gdotaccent" horiz-adv-x="1271" unicode="ġ"/><glyph d="M774 791h586v-791h-244l-10 178q-63 -94 -178 -146t-248 -52q-289 0 -455 209.5t-166 523.5q0 311 181.5 517t509.5 206q225 0 379.5 -109.5t213.5 -286.5l-268 -84q-90 219 -334 220q-190 0 -282 -131.5t-92 -333.5q0 -205 92 -333t282 -128q158 0 247 86t89 207h-303 v248zM432 -436l139 303h289l-264 -303h-164z" glyph-name="Gcommaaccent" horiz-adv-x="1486" unicode="Ģ"/><glyph d="M758 1413l-140 -270h-288l264 270h164zM842 1049h299v-983q0 -125 -45 -216.5t-121 -140.5t-160 -71.5t-180 -22.5q-358 0 -533 192l138 181q129 -152 350 -152q111 0 181.5 54.5t70.5 160.5v125q-37 -61 -120 -102t-194 -41q-205 0 -332.5 139t-127.5 381t128 379 t328 137q104 0 189.5 -41t128.5 -106v127zM614 266q115 0 177.5 75t62.5 198q0 125 -63.5 206.5t-180.5 81.5q-115 0 -177 -77.5t-62 -202.5t63 -203t180 -78z" glyph-name="gcommaaccent" horiz-adv-x="1267" unicode="ģ"/><glyph d="M1434 1202v-176h-101v-1026h-311v569h-561v-569h-311v1026h-103v176h103v211h311v-211h561v211h311v-211h101zM1022 846v180h-561v-180h561z" glyph-name="Hbar" horiz-adv-x="1482" unicode="Ħ"/><glyph d="M762 1069q170 0 265 -104.5t95 -270.5v-694h-299v641q0 88 -45 138t-129 50q-98 0 -157.5 -59t-59.5 -149v-621h-301v1159h-135v137h135v117h301v-117h225v-137h-225v-241h6q109 151 324 151z" glyph-name="hbar" horiz-adv-x="1241" unicode="ħ"/><glyph d="M463 1503q-68 0 -121 31t-94 61.5t-78 30.5q-72 0 -74 -119h-174q0 272 217 273q72 0 124 -30t92 -59.5t79 -29.5q78 0 78 115h170q0 -273 -219 -273zM150 0v1413h311v-1413h-311z" glyph-name="Itilde" horiz-adv-x="610" unicode="Ĩ"/><glyph d="M446 1141q-68 0 -121 30.5t-94 61.5t-77 31q-72 0 -74 -119h-174q0 272 217 272q72 0 124 -29.5t92 -59.5t79 -30q78 0 78 115h170q-1 -272 -220 -272zM135 0v1049h299v-1049h-299z" glyph-name="itilde" horiz-adv-x="569" unicode="ĩ"/><glyph d="M16 1589v154h576v-154h-576zM150 0v1413h311v-1413h-311z" glyph-name="Imacron" horiz-adv-x="610" unicode="Ī"/><glyph d="M0 1227v153h575v-153h-575zM135 0v1049h299v-1049h-299z" glyph-name="imacron" horiz-adv-x="569" unicode="ī"/><glyph d="M422 -246l143 -102q-82 -125 -229 -125q-96 0 -166 53t-70 164q0 147 160 256h-110v1413h311v-1413q-190 -129 -191 -231q0 -72 64 -72q55 0 88 57z" glyph-name="Iogonek" horiz-adv-x="610" unicode="Į"/><glyph d="M434 1413v-231h-303v231h303zM391 -246l144 -102q-82 -125 -230 -125q-96 0 -165.5 53t-69.5 164q0 147 159 256h-98v1049h301v-1049h-2q-190 -129 -190 -231q0 -72 63 -72q55 0 88 57z" glyph-name="iogonek" horiz-adv-x="565" unicode="į"/><glyph d="M188 1544v232h222v-232h-222zM150 0v1413h311v-1413h-311z" glyph-name="Idotaccent" horiz-adv-x="610" unicode="İ"/><glyph d="M135 0v1049h299v-1049h-299z" glyph-name="dotlessi" horiz-adv-x="569" unicode="ı"/><glyph d="M870 827l576 -827h-389l-391 606l-205 -221v-385h-311v1413h311v-647l557 647h393zM457 -436l139 303h289l-264 -303h-164z" glyph-name="Kcommaaccent" horiz-adv-x="1449" unicode="Ķ"/><glyph d="M770 641l449 -641h-347l-294 453l-146 -144v-309h-301v1413h301v-760l391 396h363zM344 -436l139 303h289l-264 -303h-164z" glyph-name="kcommaaccent" horiz-adv-x="1189" unicode="ķ"/><glyph d="M854 0l-287 444l-139 -135v-309h-301v1049h301v-392l379 392h375l-416 -408l448 -641h-360z" glyph-name="kgreenlandic" horiz-adv-x="1185" unicode="ĸ"/><glyph d="M193 1534l229 244h301l-324 -244h-206zM150 0v1413h311v-1151h604v-262h-915z" glyph-name="Lacute" horiz-adv-x="1077" unicode="Ĺ"/><glyph d="M180 1534l230 244h301l-324 -244h-207zM135 0v1413h299v-1413h-299z" glyph-name="lacute" horiz-adv-x="569" unicode="ĺ"/><glyph d="M150 0v1413h311v-1151h604v-262h-915zM332 -436l139 303h289l-264 -303h-164z" glyph-name="Lcommaaccent" horiz-adv-x="1077" unicode="Ļ"/><glyph d="M135 0v1413h299v-1413h-299zM0 -436l139 303h289l-264 -303h-164z" glyph-name="lcommaaccent" horiz-adv-x="569" unicode="ļ"/><glyph d="M461 1413v-1151h604v-262h-915v1413h311zM748 1413h327v-293h-6l-199 -315h-139l127 315h-110v293z" glyph-name="Lcaron" horiz-adv-x="1077" unicode="Ľ"/><glyph d="M135 0v1413h299v-1413h-299zM559 1413h328v-293h-6l-199 -315h-139l127 315h-111v293z" glyph-name="lcaron" horiz-adv-x="768" unicode="ľ"/><glyph d="M461 262h604v-262h-915v397l-158 -118v229l158 123v782h311v-541l203 158v-244l-203 -153v-371z" glyph-name="Lslash" horiz-adv-x="1077" unicode="Ł"/><glyph d="M645 1124v-256l-211 -159v-709h-299v483l-190 -143v240l190 147v686h299v-452z" glyph-name="lslash" horiz-adv-x="569" unicode="ł"/><glyph d="M668 1532l229 244h301l-324 -244h-206zM150 0v1413h327l604 -960h11v960h309v-1413h-332l-598 956h-10v-956h-311z" glyph-name="Nacute" horiz-adv-x="1550" unicode="Ń"/><glyph d="M516 1174l229 243h302l-324 -243h-207zM131 0v1049h297v-131h10q111 152 322 151q164 0 263 -103.5t99 -271.5v-694h-299v641q0 184 -178 184q-94 0 -153.5 -56t-59.5 -148v-621h-301z" glyph-name="nacute" horiz-adv-x="1241" unicode="ń"/><glyph d="M150 0v1413h327l604 -960h11v960h309v-1413h-332l-598 956h-10v-956h-311zM487 -436l140 303h288l-264 -303h-164z" glyph-name="Ncommaaccent" horiz-adv-x="1550" unicode="Ņ"/><glyph d="M131 0v1049h297v-131h10q111 152 322 151q164 0 263 -103.5t99 -271.5v-694h-299v641q0 184 -178 184q-94 0 -153.5 -56t-59.5 -148v-621h-301zM342 -436l139 303h289l-264 -303h-164z" glyph-name="ncommaaccent" horiz-adv-x="1241" unicode="ņ"/><glyph d="M690 1518l-244 258h224l100 -125l102 125h226l-246 -258h-162zM150 0v1413h327l604 -960h11v960h309v-1413h-332l-598 956h-10v-956h-311z" glyph-name="Ncaron" horiz-adv-x="1550" unicode="Ň"/><glyph d="M539 1159l-244 258h223l100 -125l103 125h225l-246 -258h-161zM131 0v1049h297v-131h10q111 152 322 151q164 0 263 -103.5t99 -271.5v-694h-299v641q0 184 -178 184q-94 0 -153.5 -56t-59.5 -148v-621h-301z" glyph-name="ncaron" horiz-adv-x="1241" unicode="ň"/><glyph d="M1092 1413h309v-1413q0 -154 -84 -221.5t-273 -67.5h-114v148h59q111 0 111 141h-31l-598 956h-10v-956h-311v1413h327l604 -960h11v960z" glyph-name="Eng" horiz-adv-x="1550" unicode="Ŋ"/><glyph d="M131 0v999h277v-159h16q98 176 319 176q190 0 284.5 -123t94.5 -293v-565q0 -37 -2 -61.5t-11 -68.5t-32.5 -73t-61.5 -59.5t-102.5 -46t-148.5 -15.5h-141v195h92q115 0 114 121v522q0 90 -48 150.5t-138 60.5q-94 0 -156.5 -64.5t-62.5 -160.5v-535h-293z" glyph-name="eng" horiz-adv-x="1255" unicode="ŋ"/><glyph d="M449 1589v154h575v-154h-575zM733 -20q-309 0 -491.5 196.5t-182.5 530t182.5 530.5t491.5 197q313 0 498.5 -197t185.5 -530.5t-185.5 -530t-498.5 -196.5zM733 248q164 0 260.5 124t96.5 335t-96.5 334.5t-260.5 123.5q-158 0 -251 -123.5t-93 -334.5t93 -335t251 -124 z" glyph-name="Omacron" horiz-adv-x="1476" unicode="Ō"/><glyph d="M317 1227v153h576v-153h-576zM602.5 -23q-237.5 0 -386 142.5t-148.5 400.5q0 262 148.5 405.5t386 143.5t385 -143.5t147.5 -405.5q0 -258 -147.5 -400.5t-385 -142.5zM602 221q111 0 176.5 73t65.5 226q0 158 -65.5 232.5t-176.5 74.5q-109 0 -173 -74.5t-64 -232.5 q0 -154 64 -226.5t173 -72.5z" glyph-name="omacron" horiz-adv-x="1202" unicode="ō"/><glyph d="M410 1542l204 234h244l-235 -234h-213zM791 1542l206 234h281l-277 -234h-210zM733 -20q-309 0 -491.5 196.5t-182.5 530t182.5 530.5t491.5 197q313 0 498.5 -197t185.5 -530.5t-185.5 -530t-498.5 -196.5zM733 248q164 0 260.5 124t96.5 335t-96.5 334.5t-260.5 123.5 q-158 0 -251 -123.5t-93 -334.5t93 -335t251 -124z" glyph-name="Ohungarumlaut" horiz-adv-x="1476" unicode="Ő"/><glyph d="M279 1180l204 233h244l-235 -233h-213zM659 1180l207 233h281l-277 -233h-211zM602.5 -23q-237.5 0 -386 142.5t-148.5 400.5q0 262 148.5 405.5t386 143.5t385 -143.5t147.5 -405.5q0 -258 -147.5 -400.5t-385 -142.5zM602 221q111 0 176.5 73t65.5 226 q0 158 -65.5 232.5t-176.5 74.5q-109 0 -173 -74.5t-64 -232.5q0 -154 64 -226.5t173 -72.5z" glyph-name="ohungarumlaut" horiz-adv-x="1202" unicode="ő"/><glyph d="M2116 1151h-607v-311h549v-262h-549v-314h607v-264h-899v160q-186 -180 -484 -180q-309 0 -491.5 196.5t-182.5 530t182.5 530.5t491.5 197q297 0 484 -181v160h899v-262zM733 248q164 0 260.5 124t96.5 335t-96.5 334.5t-260.5 123.5q-158 0 -251 -123.5t-93 -334.5 t93 -335t251 -124z" glyph-name="OE" horiz-adv-x="2207" unicode="Œ"/><glyph d="M1851 575q0 -80 -10 -120h-680q14 -236 238 -236q82 0 140 23.5t112 91.5l190 -139q-98 -115 -203.5 -165t-242.5 -50q-248 0 -396 151q-147 -154 -397 -154q-238 0 -386 142.5t-148 400.5q0 262 148.5 405.5t385.5 143.5q250 0 395 -154q137 154 369 154 q213 0 349 -136.5t136 -357.5zM1161 647h395q-4 86 -52 140.5t-140 54.5t-143.5 -51.5t-59.5 -143.5zM602 221q111 0 176.5 73t65.5 226q0 158 -65.5 232.5t-176.5 74.5q-109 0 -173 -74.5t-64 -232.5q0 -154 64 -226.5t173 -72.5z" glyph-name="oe" horiz-adv-x="1939" unicode="œ"/><glyph d="M545 1532l229 244h301l-323 -244h-207zM150 -2v1415h679q207 0 339 -112.5t132 -305.5q0 -272 -260 -381l334 -616h-340l-276 571h-301v-571h-307zM459 811h352q188 6 188 172q0 170 -198 170h-342v-342z" glyph-name="Racute" horiz-adv-x="1382" unicode="Ŕ"/><glyph d="M354 1169l230 244h301l-324 -244h-207zM131 0v1049h291v-162h6q37 84 100.5 131t137.5 47q80 0 118 -16v-248q-66 6 -108 -2q-113 -16 -178.5 -102.5t-65.5 -235.5v-461h-301z" glyph-name="racute" horiz-adv-x="804" unicode="ŕ"/><glyph d="M150 -2v1415h679q207 0 339 -112.5t132 -305.5q0 -272 -260 -381l334 -616h-340l-276 571h-301v-571h-307zM459 811h352q188 6 188 172q0 170 -198 170h-342v-342zM389 -436l139 303h289l-264 -303h-164z" glyph-name="Rcommaaccent" horiz-adv-x="1382" unicode="Ŗ"/><glyph d="M131 0v1049h291v-162h6q37 84 100.5 131t137.5 47q80 0 118 -16v-248q-66 6 -108 -2q-113 -16 -178.5 -102.5t-65.5 -235.5v-461h-301zM-2 -436l139 303h289l-264 -303h-164z" glyph-name="rcommaaccent" horiz-adv-x="804" unicode="ŗ"/><glyph d="M567 1518l-243 258h223l100 -125l103 125h225l-246 -258h-162zM150 -2v1415h679q207 0 339 -112.5t132 -305.5q0 -272 -260 -381l334 -616h-340l-276 571h-301v-571h-307zM459 811h352q188 6 188 172q0 170 -198 170h-342v-342z" glyph-name="Rcaron" horiz-adv-x="1382" unicode="Ř"/><glyph d="M377 1155l-244 258h223l101 -125l102 125h225l-245 -258h-162zM131 0v1049h291v-162h6q37 84 100.5 131t137.5 47q80 0 118 -16v-248q-66 6 -108 -2q-113 -16 -178.5 -102.5t-65.5 -235.5v-461h-301z" glyph-name="rcaron" horiz-adv-x="804" unicode="ř"/><glyph d="M471 1532l229 244h301l-323 -244h-207zM616 -16q-182 0 -331.5 88t-245.5 258l221 170q139 -252 356 -252q92 0 146.5 45t54.5 119q0 43 -18.5 74.5t-63.5 57t-86 41t-119 40.5q-74 23 -121 40t-109 52t-98 74.5t-62.5 102t-26.5 140.5q0 188 134 294t349 106 q279 0 477 -215l-176 -191q-129 160 -313 160q-76 0 -121 -30t-45 -85q0 -63 57 -99t191 -81q80 -27 128 -44.5t118.5 -56t109.5 -82.5t68.5 -115t29.5 -159q0 -205 -139.5 -328.5t-364.5 -123.5z" glyph-name="Sacute" horiz-adv-x="1173" unicode="Ś"/><glyph d="M399 1169l230 244h301l-324 -244h-207zM526 -23q-127 0 -255 47.5t-222 131.5l135 186q129 -129 293 -139q84 -6 139.5 16.5t59.5 75.5q2 29 -10.5 48t-48 34.5t-65.5 24t-95 22.5q-66 16 -106 28.5t-94 38t-84 56.5t-52.5 82t-22.5 114q0 164 117 245t307 81 q246 0 414 -151l-121 -183q-106 96 -256 117q-170 18 -186 -68q-2 -12 0 -23t11 -20.5t18.5 -17.5t28 -15.5t32.5 -13.5t38.5 -12t42 -11t46 -12.5t47.5 -11.5q74 -20 123 -40.5t100 -57.5t77 -93.5t26 -133.5q0 -160 -114 -252.5t-323 -92.5z" glyph-name="sacute" horiz-adv-x="1021" unicode="ś"/><glyph d="M1120 436q0 -193 -124 -313.5t-326 -136.5l-68 -99l29 -8q141 -41 141 -180q0 -98 -63.5 -147.5t-155.5 -49.5q-84 0 -147.5 40t-88.5 104l140 65q16 -63 84 -63q33 0 54 18.5t21 46.5q0 59 -69 78l-160 45l92 162q-285 59 -440 332l221 170q139 -252 356 -252 q92 0 146.5 45t54.5 119q0 43 -18.5 74.5t-63.5 57t-86 41t-119 40.5q-74 23 -121 40t-109 52t-98 74.5t-62.5 102t-26.5 140.5q0 188 134 294t349 106q279 0 477 -215l-176 -191q-129 160 -313 160q-76 0 -121 -30t-45 -85q0 -63 57 -99t191 -81q80 -27 128 -44.5 t118.5 -56t109.5 -82.5t68.5 -115t29.5 -159z" glyph-name="Scedilla" horiz-adv-x="1173" unicode="Ş"/><glyph d="M963 322q0 -137 -84 -225.5t-242 -110.5l-70 -101l29 -8q141 -41 141 -180q0 -98 -63.5 -147.5t-155.5 -49.5q-84 0 -147.5 40t-87.5 104l139 65q16 -63 84 -63q33 0 54.5 18.5t21.5 46.5q0 59 -70 78l-160 45l84 150q-229 31 -387 172l135 186q129 -129 293 -139 q84 -6 139.5 16.5t59.5 75.5q2 29 -10.5 48t-48 34.5t-65.5 24t-95 22.5q-66 16 -106 28.5t-94 38t-84 56.5t-52.5 82t-22.5 114q0 164 117 245t307 81q246 0 414 -151l-121 -183q-106 96 -256 117q-170 18 -186 -68q-2 -12 0 -23t11 -20.5t18.5 -17.5t28 -15.5t32.5 -13.5 t38.5 -12t42 -11t46 -12.5t47.5 -11.5q74 -20 123 -40.5t100 -57.5t77 -93t26 -134z" glyph-name="scedilla" horiz-adv-x="1021" unicode="ş"/><glyph d="M494 1518l-244 258h223l100 -125l103 125h225l-246 -258h-161zM616 -16q-182 0 -331.5 88t-245.5 258l221 170q139 -252 356 -252q92 0 146.5 45t54.5 119q0 43 -18.5 74.5t-63.5 57t-86 41t-119 40.5q-74 23 -121 40t-109 52t-98 74.5t-62.5 102t-26.5 140.5 q0 188 134 294t349 106q279 0 477 -215l-176 -191q-129 160 -313 160q-76 0 -121 -30t-45 -85q0 -63 57 -99t191 -81q80 -27 128 -44.5t118.5 -56t109.5 -82.5t68.5 -115t29.5 -159q0 -205 -139.5 -328.5t-364.5 -123.5z" glyph-name="Scaron" horiz-adv-x="1173" unicode="Š"/><glyph d="M422 1155l-244 258h223l101 -125l102 125h225l-245 -258h-162zM526 -23q-127 0 -255 47.5t-222 131.5l135 186q129 -129 293 -139q84 -6 139.5 16.5t59.5 75.5q2 29 -10.5 48t-48 34.5t-65.5 24t-95 22.5q-66 16 -106 28.5t-94 38t-84 56.5t-52.5 82t-22.5 114 q0 164 117 245t307 81q246 0 414 -151l-121 -183q-106 96 -256 117q-170 18 -186 -68q-2 -12 0 -23t11 -20.5t18.5 -17.5t28 -15.5t32.5 -13.5t38.5 -12t42 -11t46 -12.5t47.5 -11.5q74 -20 123 -40.5t100 -57.5t77 -93.5t26 -133.5q0 -160 -114 -252.5t-323 -92.5z" glyph-name="scaron" horiz-adv-x="1021" unicode="š"/><glyph d="M745 0h-57l-80 -115l29 -8q141 -41 141 -180q0 -98 -63.5 -147.5t-155.5 -49.5q-84 0 -147.5 40t-87.5 104l139 65q16 -63 84 -63q33 0 54.5 18.5t21.5 46.5q0 59 -70 78l-160 45l94 166h-51v1151h-422v262h1155v-262h-424v-1151z" glyph-name="Tcommaaccent" horiz-adv-x="1183" unicode="Ţ"/><glyph d="M682 854h-217v-514q0 -57 21.5 -82t70.5 -25h125v-233h-119l-80 -115l29 -8q141 -41 141 -180q0 -98 -63.5 -147.5t-155.5 -49.5q-84 0 -147.5 40t-87.5 104l139 65q16 -63 84 -63q33 0 54.5 18.5t21.5 46.5q0 59 -70 78l-160 45l94 166h52q-119 0 -183.5 69.5 t-64.5 196.5v588h-146v195h146v364h299v-364h217v-195z" glyph-name="tcommaaccent" horiz-adv-x="733" unicode="ţ"/><glyph d="M504 1518l-244 258h223l101 -125l102 125h225l-245 -258h-162zM436 0v1151h-422v262h1155v-262h-424v-1151h-309z" glyph-name="Tcaron" horiz-adv-x="1183" unicode="Ť"/><glyph d="M596 1720h328v-293h-6l-199 -315h-139l127 315h-111v293zM465 1413v-364h217v-195h-217v-514q0 -57 21.5 -82t70.5 -25h125v-233h-268q-119 0 -183.5 69.5t-64.5 196.5v588h-146v195h146v364h299z" glyph-name="tcaron" horiz-adv-x="878" unicode="ť"/><glyph d="M1169 1151h-424v-377h170v-137h-170v-637h-309v637h-182v137h182v377h-422v262h1155v-262z" glyph-name="Tbar" horiz-adv-x="1183" unicode="Ŧ"/><glyph d="M682 854h-217v-262h168v-137h-168v-115q0 -57 21.5 -82t70.5 -25h125v-233h-268q-119 0 -183.5 69.5t-64.5 196.5v189h-166v137h166v262h-146v195h146v364h299v-364h217v-195z" glyph-name="tbar" horiz-adv-x="733" unicode="ŧ"/><glyph d="M874 1503q-68 0 -121 31t-94 61.5t-77 30.5q-72 0 -74 -119h-174q0 272 217 273q72 0 124 -30t92 -59.5t79 -29.5q78 0 78 115h170q-1 -273 -220 -273zM707 -20q-281 0 -423.5 145t-142.5 410v878h312v-889q0 -125 66.5 -193.5t187.5 -68.5q125 0 193.5 68.5t68.5 193.5 v889h311v-868q0 -270 -144 -417.5t-429 -147.5z" glyph-name="Utilde" horiz-adv-x="1421" unicode="Ũ"/><glyph d="M791 1141q-68 0 -121.5 30.5t-94 61.5t-77.5 31q-72 0 -74 -119h-174q0 272 217 272q72 0 124 -29.5t92 -59.5t79 -30q78 0 78 115h170q0 -272 -219 -272zM1124 1049v-1049h-295v131h-16q-100 -156 -317 -156q-172 0 -267.5 106.5t-95.5 274.5v693h301v-617 q0 -88 49 -138t135 -50q98 0 152.5 58t54.5 149v598h299z" glyph-name="utilde" horiz-adv-x="1255" unicode="ũ"/><glyph d="M428 1589v154h576v-154h-576zM707 -20q-281 0 -423.5 145t-142.5 410v878h312v-889q0 -125 66.5 -193.5t187.5 -68.5q125 0 193.5 68.5t68.5 193.5v889h311v-868q0 -270 -144 -417.5t-429 -147.5z" glyph-name="Umacron" horiz-adv-x="1421" unicode="Ū"/><glyph d="M344 1227v153h576v-153h-576zM1124 1049v-1049h-295v131h-16q-100 -156 -317 -156q-172 0 -267.5 106.5t-95.5 274.5v693h301v-617q0 -88 49 -138t135 -50q98 0 152.5 58t54.5 149v598h299z" glyph-name="umacron" horiz-adv-x="1255" unicode="ū"/><glyph d="M713 1481q-92 0 -155.5 64.5t-63.5 158.5q0 90 64.5 153.5t154.5 63.5t154.5 -63.5t64.5 -153.5q0 -92 -64.5 -157.5t-154.5 -65.5zM713 1620q35 0 59.5 24.5t24.5 57.5q0 35 -24.5 58.5t-59.5 23.5q-82 0 -82 -82q0 -37 23.5 -59.5t58.5 -22.5zM707 -20 q-281 0 -423.5 145t-142.5 410v878h312v-889q0 -125 66.5 -193.5t187.5 -68.5q125 0 193.5 68.5t68.5 193.5v889h311v-868q0 -270 -144 -417.5t-429 -147.5z" glyph-name="Uring" horiz-adv-x="1421" unicode="Ů"/><glyph d="M629 1118q-92 0 -155.5 64.5t-63.5 158.5q0 90 64.5 154t154.5 64t154.5 -63.5t64.5 -154.5q0 -92 -64.5 -157.5t-154.5 -65.5zM629 1257q35 0 59.5 25t24.5 57q0 35 -24.5 58.5t-59.5 23.5q-82 0 -82 -82q0 -37 23.5 -59.5t58.5 -22.5zM1124 1049v-1049h-295v131h-16 q-100 -156 -317 -156q-172 0 -267.5 106.5t-95.5 274.5v693h301v-617q0 -88 49 -138t135 -50q98 0 152.5 58t54.5 149v598h299z" glyph-name="uring" horiz-adv-x="1255" unicode="ů"/><glyph d="M389 1542l205 234h244l-236 -234h-213zM770 1542l207 234h280l-276 -234h-211zM707 -20q-281 0 -423.5 145t-142.5 410v878h312v-889q0 -125 66.5 -193.5t187.5 -68.5q125 0 193.5 68.5t68.5 193.5v889h311v-868q0 -270 -144 -417.5t-429 -147.5z" glyph-name="Uhungarumlaut" horiz-adv-x="1421" unicode="Ű"/><glyph d="M305 1180l205 233h244l-236 -233h-213zM686 1180l207 233h281l-277 -233h-211zM1124 1049v-1049h-295v131h-16q-100 -156 -317 -156q-172 0 -267.5 106.5t-95.5 274.5v693h301v-617q0 -88 49 -138t135 -50q98 0 152.5 58t54.5 149v598h299z" glyph-name="uhungarumlaut" horiz-adv-x="1255" unicode="ű"/><glyph d="M1051 59q-133 -102 -133 -188q0 -72 63 -72q55 0 88 58l143 -103q-82 -125 -229 -125q-96 0 -165.5 53.5t-69.5 163.5q0 70 38 138q-53 -4 -79 -4q-281 0 -423.5 145t-142.5 410v878h312v-889q0 -125 66.5 -193.5t187.5 -68.5q125 0 193.5 68.5t68.5 193.5v889h311v-868 q0 -349 -229 -486z" glyph-name="Uogonek" horiz-adv-x="1421" unicode="Ų"/><glyph d="M1092 -246l143 -102q-82 -125 -229 -125q-96 0 -166 53t-70 164q0 147 160 256h-101v131h-16q-100 -156 -317 -156q-172 0 -267.5 106.5t-95.5 274.5v693h301v-617q0 -88 49 -138t135 -50q98 0 152.5 58t54.5 149v598h299v-1049h6q-190 -129 -190 -231q0 -72 64 -72 q55 0 88 57z" glyph-name="uogonek" horiz-adv-x="1255" unicode="ų"/><glyph d="M653 1516l244 262h162l248 -262h-228l-100 131l-102 -131h-224zM303 0l-293 1413h322l209 -1149h12l252 1149h354l250 -1149h12l209 1149h322l-293 -1413h-445l-235 1073l-231 -1073h-445z" glyph-name="Wcircumflex" horiz-adv-x="1961" unicode="Ŵ"/><glyph d="M840 1282l-103 -131h-223l244 262h162l247 -262h-227zM1354 1049h319l-276 -1049h-391l-172 668l-166 -672h-394l-272 1053h320l165 -801l213 801h271l213 -805z" glyph-name="wcircumflex" horiz-adv-x="1675" unicode="ŵ"/><glyph d="M377 1513l244 263h161l248 -263h-227l-101 132l-102 -132h-223zM549 0v551l-553 862h350l363 -579l348 579h350l-553 -862v-551h-305z" glyph-name="Ycircumflex" horiz-adv-x="1404" unicode="Ŷ"/><glyph d="M207 1151l244 262h161l248 -262h-227l-101 131l-102 -131h-223zM84 -365v236q229 0 291 156l-383 1022h319l211 -703h15l213 703h321l-405 -1069q-80 -209 -200 -277t-382 -68z" glyph-name="ycircumflex" horiz-adv-x="1052" unicode="ŷ"/><glyph d="M395 1542v234h226v-234h-226zM782 1542v234h226v-234h-226zM549 0v551l-553 862h350l363 -579l348 579h350l-553 -862v-551h-305z" glyph-name="Ydieresis" horiz-adv-x="1404" unicode="Ÿ"/><glyph d="M1034 1776l-323 -244h-207l229 244h301zM1198 1413v-219l-727 -932h727v-262h-1163v203l749 948h-704v262h1118z" glyph-name="Zacute" horiz-adv-x="1232" unicode="Ź"/><glyph d="M934 1413l-324 -244h-207l230 244h301zM963 1049v-224l-510 -587h505v-238h-895v211l535 602h-530v236h895z" glyph-name="zacute" horiz-adv-x="1026" unicode="ź"/><glyph d="M717 1776v-232h-221v232h221zM1198 1413v-219l-727 -932h727v-262h-1163v203l749 948h-704v262h1118z" glyph-name="Zdotaccent" horiz-adv-x="1232" unicode="Ż"/><glyph d="M616 1413v-231h-221v231h221zM963 1049v-224l-510 -587h505v-238h-895v211l535 602h-530v236h895z" glyph-name="zdotaccent" horiz-adv-x="1026" unicode="ż"/><glyph d="M688 1518h-162l-243 258h223l100 -125l103 125h225zM1198 1413v-219l-727 -932h727v-262h-1163v203l749 948h-704v262h1118z" glyph-name="Zcaron" horiz-adv-x="1232" unicode="Ž"/><glyph d="M588 1155h-162l-244 258h224l100 -125l102 125h226zM963 1049v-224l-510 -587h505v-238h-895v211l535 602h-530v236h895z" glyph-name="zcaron" horiz-adv-x="1026" unicode="ž"/><glyph d="M664 1198q-53 0 -54 -68v-81h211v-195h-211v-854h-18q0 -227 -136.5 -329.5t-367.5 -102.5v244q109 0 156 41t47 147h20v854h-190v195h194v71q0 133 85 213t247 80h174v-215h-157z" glyph-name="florin" horiz-adv-x="956" unicode="ƒ"/><glyph d="M774 1518h-162l-243 258h223l100 -125l103 125h225zM1055 0l-99 315h-522l-100 -315h-336l491 1413h406l494 -1413h-334zM512 563h367l-179 572h-8z" glyph-name="uni01CD" horiz-adv-x="1386" unicode="Ǎ"/><glyph d="M612 1155h-161l-244 258h223l100 -125l103 125h225zM539 1069q209 0 338 -88t129 -266v-715h-265v117q-70 -68 -162 -104t-176 -36q-156 0 -248 78t-92 213q0 190 197 289q102 49 481 145q-2 78 -49 112t-151 34q-168 0 -273 -131l-184 141q158 211 455 211zM492 201 q147 4 249 121v184q-213 -61 -272 -90q-92 -43 -92 -117q0 -49 32 -74.5t83 -23.5z" glyph-name="uni01CE" horiz-adv-x="1107" unicode="ǎ"/><glyph d="M219 1518l-244 258h224l100 -125l102 125h226l-246 -258h-162zM150 0v1413h311v-1413h-311z" glyph-name="uni01CF" horiz-adv-x="610" unicode="Ǐ"/><glyph d="M203 1155l-244 258h223l101 -125l102 125h225l-245 -258h-162zM135 0v1049h299v-1049h-299z" glyph-name="uni01D0" horiz-adv-x="569" unicode="ǐ"/><glyph d="M651 1518l-243 258h223l100 -125l103 125h225l-246 -258h-162zM733 -20q-309 0 -491.5 196.5t-182.5 530t182.5 530.5t491.5 197q313 0 498.5 -197t185.5 -530.5t-185.5 -530t-498.5 -196.5zM733 248q164 0 260.5 124t96.5 335t-96.5 334.5t-260.5 123.5 q-158 0 -251 -123.5t-93 -334.5t93 -335t251 -124z" glyph-name="uni01D1" horiz-adv-x="1476" unicode="Ǒ"/><glyph d="M520 1155l-244 258h224l100 -125l102 125h226l-246 -258h-162zM602.5 -23q-237.5 0 -386 142.5t-148.5 400.5q0 262 148.5 405.5t386 143.5t385 -143.5t147.5 -405.5q0 -258 -147.5 -400.5t-385 -142.5zM602 221q111 0 176.5 73t65.5 226q0 158 -65.5 232.5t-176.5 74.5 q-109 0 -173 -74.5t-64 -232.5q0 -154 64 -226.5t173 -72.5z" glyph-name="uni01D2" horiz-adv-x="1202" unicode="ǒ"/><glyph d="M631 1518l-244 258h223l101 -125l102 125h225l-245 -258h-162zM707 -20q-281 0 -423.5 145t-142.5 410v878h312v-889q0 -125 66.5 -193.5t187.5 -68.5q125 0 193.5 68.5t68.5 193.5v889h311v-868q0 -270 -144 -417.5t-429 -147.5z" glyph-name="uni01D3" horiz-adv-x="1421" unicode="Ǔ"/><glyph d="M547 1155l-244 258h223l101 -125l102 125h225l-245 -258h-162zM1124 1049v-1049h-295v131h-16q-100 -156 -317 -156q-172 0 -267.5 106.5t-95.5 274.5v693h301v-617q0 -88 49 -138t135 -50q98 0 152.5 58t54.5 149v598h299z" glyph-name="uni01D4" horiz-adv-x="1255" unicode="ǔ"/><glyph d="M428 1954v153h576v-153h-576zM406 1542v234h225v-234h-225zM793 1542v234h225v-234h-225zM707 -20q-281 0 -423.5 145t-142.5 410v878h312v-889q0 -125 66.5 -193.5t187.5 -68.5q125 0 193.5 68.5t68.5 193.5v889h311v-868q0 -270 -144 -417.5t-429 -147.5z" glyph-name="uni01D5" horiz-adv-x="1421" unicode="Ǖ"/><glyph d="M344 1591v154h576v-154h-576zM322 1180v233h225v-233h-225zM709 1180v233h225v-233h-225zM1124 1049v-1049h-295v131h-16q-100 -156 -317 -156q-172 0 -267.5 106.5t-95.5 274.5v693h301v-617q0 -88 49 -138t135 -50q98 0 152.5 58t54.5 149v598h299z" glyph-name="uni01D6" horiz-adv-x="1255" unicode="ǖ"/><glyph d="M608 1896l230 244h301l-324 -244h-207zM406 1542v234h225v-234h-225zM793 1542v234h225v-234h-225zM707 -20q-281 0 -423.5 145t-142.5 410v878h312v-889q0 -125 66.5 -193.5t187.5 -68.5q125 0 193.5 68.5t68.5 193.5v889h311v-868q0 -270 -144 -417.5t-429 -147.5z" glyph-name="uni01D7" horiz-adv-x="1421" unicode="Ǘ"/><glyph d="M524 1534l230 244h301l-324 -244h-207zM322 1180v233h225v-233h-225zM709 1180v233h225v-233h-225zM1124 1049v-1049h-295v131h-16q-100 -156 -317 -156q-172 0 -267.5 106.5t-95.5 274.5v693h301v-617q0 -88 49 -138t135 -50q98 0 152.5 58t54.5 149v598h299z" glyph-name="uni01D8" horiz-adv-x="1255" unicode="ǘ"/><glyph d="M631 1882l-244 258h223l101 -125l102 125h225l-245 -258h-162zM406 1542v234h225v-234h-225zM793 1542v234h225v-234h-225zM707 -20q-281 0 -423.5 145t-142.5 410v878h312v-889q0 -125 66.5 -193.5t187.5 -68.5q125 0 193.5 68.5t68.5 193.5v889h311v-868 q0 -270 -144 -417.5t-429 -147.5z" glyph-name="uni01D9" horiz-adv-x="1421" unicode="Ǚ"/><glyph d="M547 1520l-244 258h223l101 -125l102 125h225l-245 -258h-162zM322 1180v233h225v-233h-225zM709 1180v233h225v-233h-225zM1124 1049v-1049h-295v131h-16q-100 -156 -317 -156q-172 0 -267.5 106.5t-95.5 274.5v693h301v-617q0 -88 49 -138t135 -50q98 0 152.5 58 t54.5 149v598h299z" glyph-name="uni01DA" horiz-adv-x="1255" unicode="ǚ"/><glyph d="M604 1896l-315 244h303l227 -244h-215zM406 1542v234h225v-234h-225zM793 1542v234h225v-234h-225zM707 -20q-281 0 -423.5 145t-142.5 410v878h312v-889q0 -125 66.5 -193.5t187.5 -68.5q125 0 193.5 68.5t68.5 193.5v889h311v-868q0 -270 -144 -417.5t-429 -147.5z" glyph-name="uni01DB" horiz-adv-x="1421" unicode="Ǜ"/><glyph d="M520 1534l-315 244h303l227 -244h-215zM322 1180v233h225v-233h-225zM709 1180v233h225v-233h-225zM1124 1049v-1049h-295v131h-16q-100 -156 -317 -156q-172 0 -267.5 106.5t-95.5 274.5v693h301v-617q0 -88 49 -138t135 -50q98 0 152.5 58t54.5 149v598h299z" glyph-name="uni01DC" horiz-adv-x="1255" unicode="ǜ"/><glyph d="M1159 1776l-323 -244h-207l229 244h301zM1305 1143q113 -180 112 -436q0 -334 -185 -530.5t-499 -196.5q-268 0 -442 149l-101 -100l-137 131l115 114q-109 182 -109 433q0 334 182.5 530.5t491.5 196.5q266 0 447 -148l96 96l135 -131zM389 707q0 -98 23 -189l553 553 q-90 94 -232 94q-158 0 -251 -123.5t-93 -334.5zM733 248q164 0 260.5 124t96.5 335q0 100 -27 196l-557 -559q90 -96 227 -96z" glyph-name="Oslashacute" horiz-adv-x="1476" unicode="Ǿ"/><glyph d="M1028 1413l-323 -244h-207l229 244h301zM1036 866q98 -137 99 -346q0 -258 -147.5 -400.5t-385.5 -142.5q-203 0 -344 107l-39 -39l-98 92l43 43q-96 137 -96 340q0 262 148.5 405.5t385.5 143.5q203 0 344 -106l39 38l94 -92zM365 520q0 -76 14 -125l379 379 q-59 53 -156 53q-109 0 -173 -74.5t-64 -232.5zM602 221q111 0 176.5 73t65.5 226q0 76 -17 135l-381 -381q60 -53 156 -53z" glyph-name="oslashacute" horiz-adv-x="1202" unicode="ǿ"/><glyph d="M616 -16q-182 0 -331.5 88t-245.5 258l221 170q139 -252 356 -252q92 0 146.5 45t54.5 119q0 43 -18.5 74.5t-63.5 57t-86 41t-119 40.5q-74 23 -121 40t-109 52t-98 74.5t-62.5 102t-26.5 140.5q0 188 134 294t349 106q279 0 477 -215l-176 -191q-129 160 -313 160 q-76 0 -121 -30t-45 -85q0 -63 57 -99t191 -81q80 -27 128 -44.5t118.5 -56t109.5 -82.5t68.5 -115t29.5 -159q0 -205 -139.5 -328.5t-364.5 -123.5zM295 -434l139 303h289l-264 -303h-164z" glyph-name="Scommaaccent" horiz-adv-x="1173" unicode="Ș"/><glyph d="M526 -23q-127 0 -255 47.5t-222 131.5l135 186q129 -129 293 -139q84 -6 139.5 16.5t59.5 75.5q2 29 -10.5 48t-48 34.5t-65.5 24t-95 22.5q-66 16 -106 28.5t-94 38t-84 56.5t-52.5 82t-22.5 114q0 164 117 245t307 81q246 0 414 -151l-121 -183q-106 96 -256 117 q-170 18 -186 -68q-2 -12 0 -23t11 -20.5t18.5 -17.5t28 -15.5t32.5 -13.5t38.5 -12t42 -11t46 -12.5t47.5 -11.5q74 -20 123 -40.5t100 -57.5t77 -93.5t26 -133.5q0 -160 -114 -252.5t-323 -92.5zM260 -436l139 303h289l-264 -303h-164z" glyph-name="scommaaccent" horiz-adv-x="1021" unicode="ș"/><glyph d="M436 0v1151h-422v262h1155v-262h-424v-1151h-309zM301 -436l139 303h289l-264 -303h-164z" glyph-name="uni021A" horiz-adv-x="1183" unicode="Ț"/><glyph d="M414 0q-119 0 -183.5 69.5t-64.5 196.5v588h-146v195h146v364h299v-364h217v-195h-217v-514q0 -57 21.5 -82t70.5 -25h125v-233h-268zM176 -436l139 303h289l-264 -303h-164z" glyph-name="uni021B" horiz-adv-x="733" unicode="ț"/><glyph d="M96 -365h-149v236h84q47 0 73.5 26.5t26.5 73.5v1078h299v-1072q0 -154 -84 -248t-250 -94z" glyph-name="uni0237" horiz-adv-x="563" unicode="ȷ"/><glyph d="M61 1090l244 262h162l248 -262h-228l-100 131l-102 -131h-224z" glyph-name="circumflex" horiz-adv-x="774" unicode="ˆ"/><glyph d="M305 1106l-244 258h224l100 -125l102 125h226l-246 -258h-162z" glyph-name="caron" horiz-adv-x="774" unicode="ˇ"/><glyph d="M358 1092q-141 0 -228 72.5t-87 197.5h184q0 -51 37 -83t94 -32q59 0 96.5 32t37.5 83h190q0 -123 -90.5 -196.5t-233.5 -73.5z" glyph-name="breve" horiz-adv-x="724" unicode="˘"/><glyph d="M55 1133v231h221v-231h-221z" glyph-name="dotaccent" horiz-adv-x="331" unicode="˙"/><glyph d="M266 1096q-96 0 -159.5 65.5t-63.5 159.5q0 92 64.5 158.5t158.5 66.5t161 -65.5t67 -159.5t-66 -159.5t-162 -65.5zM266 1219q47 0 76 29.5t29 76.5q0 43 -28 70.5t-77 27.5q-45 0 -72.5 -27.5t-27.5 -70.5q0 -45 28.5 -75.5t71.5 -30.5z" glyph-name="ring" horiz-adv-x="536" unicode="˚"/><glyph d="M334 -473q-96 0 -166 53t-70 164q0 158 187 272l174 -16q-190 -129 -191 -231q0 -72 64 -72q55 0 88 57l143 -102q-82 -125 -229 -125z" glyph-name="ogonek" horiz-adv-x="573" unicode="˛"/><glyph d="M586 1075q-68 0 -121 31t-94 61.5t-78 30.5q-72 0 -74 -119h-174q0 272 217 273q72 0 124 -30t92 -59.5t79 -29.5q78 0 78 115h170q0 -273 -219 -273z" glyph-name="tilde" horiz-adv-x="847" unicode="˜"/><glyph d="M41 1130l205 234h243l-235 -234h-213zM422 1130l207 234h280l-276 -234h-211z" glyph-name="hungarumlaut" horiz-adv-x="954" unicode="˝"/><glyph d="M-258 1120l-315 244h303l227 -244h-215z" glyph-name="gravecomb" unicode="̀"/><glyph d="M-567 1120l229 244h301l-323 -244h-207z" glyph-name="acutecomb" unicode="́"/><glyph d="M-713 1090l244 262h162l248 -262h-228l-100 131l-102 -131h-224z" glyph-name="uni0302" unicode="̂"/><glyph d="M-262 1075q-68 0 -121 31t-94 61.5t-78 30.5q-72 0 -74 -119h-174q0 272 217 273q72 0 124 -30t92 -59.5t79 -29.5q78 0 78 115h170q0 -273 -219 -273z" glyph-name="tildecomb" unicode="̃"/><glyph d="M-639 1178v153h576v-153h-576z" glyph-name="uni0304" unicode="̄"/><glyph d="M-367 1092q-141 0 -228 72.5t-87 197.5h184q0 -51 37 -83t94 -32q59 0 96.5 32t37.5 83h190q0 -123 -90.5 -196.5t-233.5 -73.5z" glyph-name="uni0306" unicode="̆"/><glyph d="M-276 1133v231h221v-231h-221z" glyph-name="uni0307" unicode="̇"/><glyph d="M-668 1130v234h226v-234h-226zM-281 1130v234h226v-234h-226z" glyph-name="uni0308" unicode="̈"/><glyph d="M-291 1102q-92 0 -155.5 64.5t-63.5 158.5q0 90 64.5 153.5t154.5 63.5t154.5 -63.5t64.5 -153.5q0 -92 -64.5 -157.5t-154.5 -65.5zM-291 1241q35 0 59.5 24.5t24.5 57.5q0 35 -24.5 58.5t-59.5 23.5q-82 0 -82 -82q0 -37 23.5 -59.5t58.5 -22.5z" glyph-name="uni030A" unicode="̊"/><glyph d="M-913 1130l204 234h244l-235 -234h-213zM-532 1130l206 234h281l-277 -234h-210z" glyph-name="uni030B" unicode="̋"/><glyph d="M-469 1106l-244 258h224l100 -125l102 125h226l-246 -258h-162z" glyph-name="uni030C" unicode="̌"/><glyph d="M47 1413l-139 -270h-289l264 270h164z" glyph-name="uni0312" unicode="̒"/><glyph d="M-463 -436l139 303h289l-264 -303h-164z" glyph-name="uni0326" unicode="̦"/><glyph d="M-262 -500q-84 0 -147.5 40t-88.5 104l140 65q16 -63 84 -63q33 0 54 18.5t21 46.5q0 59 -69 78l-160 45l94 166h201l-80 -115l29 -8q141 -41 141 -180q0 -98 -63.5 -147.5t-155.5 -49.5z" glyph-name="uni0327" unicode="̧"/><glyph d="M-240 -473q-96 0 -165.5 53t-69.5 164q0 158 186 272l174 -16q-190 -129 -190 -231q0 -72 63 -72q55 0 88 57l144 -102q-83 -125 -230 -125z" glyph-name="uni0328" unicode="̨"/><glyph d="M-969 514v137h662v-137h-662z" glyph-name="uni0335" unicode="̵"/><glyph d="M-1432 481v176h1387v-176h-1387z" glyph-name="uni0336" unicode="̶"/><glyph d="M-1075 154v307l897 698v-328z" glyph-name="uni0337" unicode="̷"/><glyph d="M-1257 27l-138 131l1223 1222l135 -131z" glyph-name="uni0338" unicode="̸"/><glyph d="M903 -20q-117 0 -185.5 73.5t-68.5 167.5v535h-188v-756h-244v756h-82v243h840v-243h-82v-482q0 -53 39 -65t72 24l71 -202q-76 -51 -172 -51z" glyph-name="pi" horiz-adv-x="1206" unicode="π"/><glyph d="M870 1534l-315 244h303l227 -244h-215zM303 0l-293 1413h322l209 -1149h12l252 1149h354l250 -1149h12l209 1149h322l-293 -1413h-445l-235 1073l-231 -1073h-445z" glyph-name="Wgrave" horiz-adv-x="1961" unicode="Ẁ"/><glyph d="M946 1169h-215l-315 244h303zM1354 1049h319l-276 -1049h-391l-172 668l-166 -672h-394l-272 1053h320l165 -801l213 801h271l213 -805z" glyph-name="wgrave" horiz-adv-x="1675" unicode="ẁ"/><glyph d="M874 1534l230 244h301l-324 -244h-207zM303 0l-293 1413h322l209 -1149h12l252 1149h354l250 -1149h12l209 1149h322l-293 -1413h-445l-235 1073l-231 -1073h-445z" glyph-name="Wacute" horiz-adv-x="1961" unicode="Ẃ"/><glyph d="M1266 1413l-324 -244h-207l230 244h301zM1354 1049h319l-276 -1049h-391l-172 668l-166 -672h-394l-272 1053h320l165 -801l213 801h271l213 -805z" glyph-name="wacute" horiz-adv-x="1675" unicode="ẃ"/><glyph d="M672 1544v234h225v-234h-225zM1059 1544v234h225v-234h-225zM303 0l-293 1413h322l209 -1149h12l252 1149h354l250 -1149h12l209 1149h322l-293 -1413h-445l-235 1073l-231 -1073h-445z" glyph-name="Wdieresis" horiz-adv-x="1961" unicode="Ẅ"/><glyph d="M758 1413v-233h-226v233h226zM1145 1413v-233h-225v233h225zM1354 1049h319l-276 -1049h-391l-172 668l-166 -672h-394l-272 1053h320l165 -801l213 801h271l213 -805z" glyph-name="wdieresis" horiz-adv-x="1675" unicode="ẅ"/><glyph d="M793 1503q-68 0 -121.5 31t-94 61.5t-77.5 30.5q-72 0 -74 -119h-174q0 272 217 273q72 0 124 -30t92 -59.5t79 -29.5q78 0 78 115h170q0 -273 -219 -273zM150 0v1413h958v-262h-647v-311h586v-262h-586v-314h647v-264h-958z" glyph-name="uni1EBC" horiz-adv-x="1200" unicode="Ẽ"/><glyph d="M731 1141q-68 0 -121 30.5t-94 61.5t-78 31q-72 0 -73 -119h-175q0 272 218 272q72 0 124 -29.5t92 -59.5t78 -30q78 0 78 115h170q0 -272 -219 -272zM1061 575q0 -80 -10 -120h-680q14 -236 237 -236q82 0 140.5 23.5t111.5 91.5l191 -139q-98 -115 -204 -165t-243 -50 q-236 0 -386 142t-150 394q0 248 140 400.5t367 152.5q213 0 349.5 -136.5t136.5 -357.5zM573.5 842q-92.5 0 -143.5 -51.5t-59 -143.5h395q-4 86 -52 140.5t-140.5 54.5z" glyph-name="uni1EBD" horiz-adv-x="1132" unicode="ẽ"/><glyph d="M594 1532l-315 244h303l227 -244h-215zM549 0v551l-553 862h350l363 -579l348 579h350l-553 -862v-551h-305z" glyph-name="Ygrave" horiz-adv-x="1404" unicode="Ỳ"/><glyph d="M424 1169l-315 244h303l227 -244h-215zM84 -365v236q229 0 291 156l-383 1022h319l211 -703h15l213 703h321l-405 -1069q-80 -209 -200 -277t-382 -68z" glyph-name="ygrave" horiz-adv-x="1052" unicode="ỳ"/><glyph d="M864 1503q-68 0 -121 31t-94 61.5t-78 30.5q-72 0 -73 -119h-174q0 272 217 273q72 0 124 -30t92 -59.5t79 -29.5q78 0 77 115h170q0 -273 -219 -273zM549 0v551l-553 862h350l363 -579l348 579h350l-553 -862v-551h-305z" glyph-name="uni1EF8" horiz-adv-x="1404" unicode="Ỹ"/><glyph d="M694 1141q-68 0 -121 30.5t-94 61.5t-78 31q-72 0 -73 -119h-174q0 272 217 272q72 0 124 -29.5t92 -59.5t79 -30q78 0 77 115h170q0 -272 -219 -272zM84 -365v236q229 0 291 156l-383 1022h319l211 -703h15l213 703h321l-405 -1069q-80 -209 -200 -277t-382 -68z" glyph-name="uni1EF9" horiz-adv-x="1052" unicode="ỹ"/><glyph d="M35 395v246h807v-246h-807z" glyph-name="endash" horiz-adv-x="874" unicode="–"/><glyph d="M0 395v246h2048v-246h-2048z" glyph-name="emdash" horiz-adv-x="2048" unicode="—"/><glyph d="M446 1454l-141 -348h123v-324h-362v324h8l219 348h153z" glyph-name="quoteleft" horiz-adv-x="524" unicode="‘"/><glyph d="M94 1413h363v-323h-8l-220 -349h-153l141 349h-123v323z" glyph-name="quoteright" horiz-adv-x="526" unicode="’"/><glyph d="M96 324h363v-324h-8l-220 -348h-153l141 348h-123v324z" glyph-name="quotesinglbase" horiz-adv-x="557" unicode="‚"/><glyph d="M293 1454h153l-141 -348h123v-324h-362v324h8zM954 1454l-141 -348h123v-324h-363v324h9l219 348h153z" glyph-name="quotedblleft" horiz-adv-x="1032" unicode="“"/><glyph d="M94 1090v323h363v-323h-8l-220 -349h-153l141 349h-123zM606 1413h363v-323h-8l-220 -349h-153l141 349h-123v323z" glyph-name="quotedblright" horiz-adv-x="1038" unicode="”"/><glyph d="M96 0v324h363v-324h-8l-220 -348h-153l141 348h-123zM608 324h363v-324h-8l-220 -348h-153l141 348h-123v324z" glyph-name="quotedblbase" horiz-adv-x="1069" unicode="„"/><glyph d="M326 -205v991h-222v267h222v360h264v-360h221v-267h-221v-991h-264z" glyph-name="dagger" horiz-adv-x="913" unicode="†"/><glyph d="M326 -205v361h-222v266h222v364h-222v267h222v360h264v-360h221v-267h-221v-364h221v-266h-221v-361h-264z" glyph-name="daggerdbl" horiz-adv-x="913" unicode="‡"/><glyph d="M504 92q-180 0 -308 128t-128 308.5t128 308.5t308 128q178 0 306 -128t128 -308.5t-128 -308.5t-306 -128z" glyph-name="bullet" horiz-adv-x="1005" unicode="•"/><glyph d="M102 0v303h271v-303h-271zM571 0v303h271v-303h-271z" glyph-name="twodotenleader" horiz-adv-x="935" unicode="‥"/><glyph d="M102 0v324h363v-324h-363zM719 0v324h362v-324h-362zM1337 0v324h363v-324h-363z" glyph-name="ellipsis" horiz-adv-x="1794" unicode="…"/><glyph d="M354 748q-84 0 -147.5 35.5t-95 91t-46 108.5t-14.5 104q0 55 14.5 110.5t45 112t92 91.5t145.5 35q147 0 224 -107.5t77 -241t-75 -236.5t-220 -103zM254 0l758 1413h260l-758 -1413h-260zM350 961q33 0 57.5 36.5t24.5 92.5q0 61 -24.5 98t-59.5 37q-37 0 -60.5 -37 t-23.5 -101q0 -57 23.5 -91.5t62.5 -34.5zM1196 -14q-84 0 -147.5 34.5t-96 91t-47 112t-14.5 108.5q0 55 14.5 111.5t46 114.5t93 94t145.5 36q147 0 223 -109.5t76 -246.5q0 -133 -75 -239.5t-218 -106.5zM1847 -14q-82 0 -144.5 34.5t-95 90t-48 112t-15.5 109.5 q0 55 15.5 112.5t47 113.5t93 93t141.5 37q147 0 227 -110.5t80 -245.5q0 -131 -78 -238.5t-223 -107.5zM1194 195q31 0 54.5 39.5t23.5 99.5q0 61 -24.5 100t-57.5 39q-37 0 -61.5 -39t-24.5 -102q0 -61 24.5 -99t65.5 -38zM1843 195q33 0 57.5 39.5t24.5 99.5 q0 63 -23.5 101t-60.5 38q-35 0 -56.5 -38t-21.5 -103q0 -61 22.5 -99t57.5 -38z" glyph-name="perthousand" horiz-adv-x="2203" unicode="‰"/><glyph d="M543 139l-463 371l463 373v-242l-176 -131l176 -129v-242z" glyph-name="guilsinglleft" horiz-adv-x="622" unicode="‹"/><glyph d="M80 139v242l176 129l-176 131v242l463 -373z" glyph-name="guilsinglright" horiz-adv-x="622" unicode="›"/><glyph d="M-328 0l813 1413h285l-819 -1413h-279z" glyph-name="fraction" horiz-adv-x="444" unicode="⁄"/><glyph d="M1096 356l127 -254q-150 -125 -394 -125q-262 0 -412.5 142.5t-197.5 369.5h-235l71 136h146q-2 27 -2 80v43h-201l76 143h141q41 240 191.5 392.5t422.5 152.5q223 0 375 -109l-123 -299q-88 145 -254 146q-117 0 -195.5 -75t-109.5 -208h504l-61 -143h-461 q-2 -14 -2 -46q0 -29 4 -77h409l-55 -136h-332q74 -246 303 -245q159 -1 265 112z" glyph-name="Euro" horiz-adv-x="1265" unicode="€"/><glyph d="M10 1266v147h473v-147h-147v-457h-176v457h-150zM985 1413h246v-604h-162v414l-92 -414h-160l-100 405v-405h-162v604h248l94 -420z" glyph-name="trademark" horiz-adv-x="1302" unicode="™"/><glyph d="M51 0v242h234q-111 80 -170.5 218t-59.5 277q0 283 210 476.5t497 193.5q291 0 499.5 -198.5t208.5 -483.5q0 -139 -55 -273.5t-160 -220.5h220v-231h-578v223q137 18 229.5 146.5t92.5 314.5q0 221 -129 350t-326 129q-201 0 -329 -132t-128 -347q0 -190 97.5 -310 t224.5 -151v-223h-578z" glyph-name="uni2126" horiz-adv-x="1527" unicode="Ω"/><glyph d="M2322 762v-254h-1554l442 -225v-250l-1075 606l1075 596v-250l-442 -223h1554z" glyph-name="arrowleft" horiz-adv-x="2457" unicode="←"/><glyph d="M1247 33v250l443 225h-1555v254h1555l-443 223v250l1075 -596z" glyph-name="arrowright" horiz-adv-x="2457" unicode="→"/><glyph d="M545 -12q-225 0 -353.5 131t-128.5 348q0 254 164 424t389 170q213 0 287 -152h8q-4 137 -77.5 222.5t-192.5 85.5q-106 0 -174 -76l-139 159q117 129 317 130q260 0 387 -187.5t127 -482.5q0 -340 -160.5 -556t-453.5 -216zM543 236q147 0 241.5 111.5t94.5 273.5 q0 227 -203 227q-152 0 -250 -117t-98 -268q0 -109 56.5 -168t158.5 -59z" glyph-name="partialdiff" horiz-adv-x="1249" unicode="∂"/><glyph d="M-2 0l627 1530l624 -1530h-1251zM354 244h539l-268 710z" glyph-name="uni2206" horiz-adv-x="1247" unicode="∆"/><glyph d="M231 0v1169h-149v244h1212v-244h-151v-1169h-244v1169h-424v-1169h-244z" glyph-name="product" horiz-adv-x="1376" unicode="∏"/><glyph d="M66 0v127l563 580l-563 577v129h1120v-244h-692l479 -462l-479 -463h692v-244h-1120z" glyph-name="summation" horiz-adv-x="1249" unicode="∑"/><glyph d="M162 401v234h880v-234h-880z" glyph-name="minus" horiz-adv-x="1204" unicode="−"/><glyph d="M1051 1432l231 -80l-637 -1547h-178l-262 715h-160v246h340l178 -571z" glyph-name="radical" horiz-adv-x="1316" unicode="√"/><glyph d="M395 283q-145 0 -240.5 99t-95.5 250.5t95.5 251t240.5 99.5q180 0 373 -188q193 188 373 188q145 0 241.5 -99.5t96.5 -251t-96.5 -250.5t-241.5 -99q-180 0 -373 188q-193 -188 -373 -188zM412 502q78 0 209 131q-131 131 -209 131q-55 0 -94 -35t-39 -96.5t39 -96 t94 -34.5zM1124 502q57 0 96.5 34.5t39.5 96t-39 96.5t-97 35q-78 0 -209 -131q131 -131 209 -131z" glyph-name="infinity" horiz-adv-x="1536" unicode="∞"/><glyph d="M6 -457v244q166 0 226.5 53.5t60.5 196.5v1085q0 141 92 233.5t229 92.5q141 0 238 -90l-160 -189q-43 35 -78 35q-76 0 -75 -94v-1092q0 -225 -145.5 -350t-387.5 -125z" glyph-name="integral" horiz-adv-x="860" unicode="∫"/><glyph d="M684 604q-57 0 -109.5 23.5t-86 53.5t-76.5 53.5t-84 23.5q-94 0 -95 -146h-208q0 178 69.5 274.5t198.5 96.5q78 0 141.5 -38t115.5 -76t101 -38q98 0 99 150h211q0 -182 -72 -279.5t-205 -97.5zM684 115q-72 0 -135.5 39t-117.5 76.5t-103 37.5q-94 0 -95 -145h-208 q0 178 69.5 274.5t198.5 96.5q78 0 141.5 -38t115.5 -76t101 -38q98 0 99 150h211q0 -182 -72 -279.5t-205 -97.5z" glyph-name="approxequal" horiz-adv-x="1021" unicode="≈"/><glyph d="M1159 643h-348l-115 -209h463v-248h-602l-195 -350h-243l196 350h-223v248h365l116 209h-481v248h621l202 358h234l-199 -358h209v-248z" glyph-name="notequal" horiz-adv-x="1269" unicode="≠"/><glyph d="M1182 324l-1094 563l1094 563v-268l-592 -295l592 -293v-270zM1182 0h-1082v223h1082v-223z" glyph-name="lessequal" horiz-adv-x="1349" unicode="≤"/><glyph d="M160 324v270l592 293l-592 295v268l1093 -563zM160 0v223h1081v-223h-1081z" glyph-name="greaterequal" horiz-adv-x="1341" unicode="≥"/><glyph d="M473 0l-397 717l397 717h227l396 -717l-396 -717h-227zM584 270l225 447l-225 446l-222 -446z" glyph-name="lozenge" horiz-adv-x="1171" unicode="◊"/><glyph d="M172 1182v231h221v-231h-221zM135 0v1049h299v-1049h-299z" glyph-name="i.locl" horiz-adv-x="569"/><glyph d="M1327 854h-217v-514q0 -57 21.5 -82t70.5 -25h125v-233h-268q-119 0 -183.5 69.5t-64.5 196.5v588h-289v-854h-299v854h-190v195h194v71q0 133 85 213t247 80h174v-215h-158q-53 0 -53 -68v-81h289v364h299v-364h217v-195z" glyph-name="f_t.dlig" horiz-adv-x="1372"/><glyph d="M1296 854h-217v-514q0 -57 21.5 -82t70.5 -25h125v-233h-268q-119 0 -183.5 69.5t-64.5 196.5v588h-315v-514q0 -57 21.5 -82t70.5 -25h125v-233h-268q-119 0 -183.5 69.5t-64.5 196.5v588h-146v195h146v364h299v-364h315v364h299v-364h217v-195z" glyph-name="t_t.dlig" horiz-adv-x="1341"/><glyph d="M921.5 -61q-321.5 0 -548 226t-226.5 547.5t226.5 548t548 226.5t548 -226.5t226.5 -548t-226.5 -547.5t-548 -226zM921.5 10q290.5 0 496.5 206t206 497t-206 496.5t-496.5 205.5t-496.5 -205.5t-206 -496.5t206 -497t496.5 -206zM518 410q-14 0 -24.5 10t-10.5 24v537 q0 14 10.5 25.5t24.5 11.5t25.5 -11.5t11.5 -25.5v-537q0 -34 -37 -34zM921.5 410q-34.5 0 -34.5 34v537q0 37 34.5 37t34.5 -37v-537q0 -34 -34.5 -34zM1323 410q-14 0 -23 10l-270 268q-8 10 -8 25q0 16 8 24l270 269q10 12 23 12q14 0 25.5 -11.5t11.5 -25.5t-10 -25 l-244 -243l244 -244q10 -10 10 -24.5t-11.5 -24.5t-25.5 -10zM653 678q-35 0 -35 35t35 35h133q37 0 37 -35t-37 -35h-133z" glyph-name="glyph397" horiz-adv-x="1841"/></font>
</defs>
</svg>
